G75*
%MOIN*%
%OFA0B0*%
%FSLAX25Y25*%
%IPPOS*%
%LPD*%
%AMOC8*
5,1,8,0,0,1.08239X$1,22.5*
%
%ADD10C,0.00000*%
%ADD11R,0.13600X0.00400*%
%ADD12R,0.01600X0.00400*%
%ADD13C,0.00600*%
%ADD14C,0.00512*%
D10*
X0028845Y0033933D02*
X0028845Y0837683D01*
X0073845Y0837683D01*
X0073845Y0813933D01*
X0083845Y0813933D02*
X0083845Y0837683D01*
X0073845Y0837683D01*
X0083845Y0837683D02*
X0085755Y0837683D01*
X0085755Y0803500D01*
X0092398Y0803500D01*
X0092398Y0837683D01*
X0103845Y0837683D01*
X0103845Y0806433D01*
X0113845Y0803933D02*
X0113845Y0837683D01*
X0103845Y0837683D02*
X0641266Y0837683D01*
X0641266Y0033933D01*
X0028845Y0033933D01*
X0136345Y0748933D02*
X0136347Y0749094D01*
X0136353Y0749254D01*
X0136363Y0749415D01*
X0136377Y0749575D01*
X0136395Y0749735D01*
X0136416Y0749894D01*
X0136442Y0750053D01*
X0136472Y0750211D01*
X0136505Y0750368D01*
X0136543Y0750525D01*
X0136584Y0750680D01*
X0136629Y0750834D01*
X0136678Y0750987D01*
X0136731Y0751139D01*
X0136787Y0751290D01*
X0136848Y0751439D01*
X0136911Y0751587D01*
X0136979Y0751733D01*
X0137050Y0751877D01*
X0137124Y0752019D01*
X0137202Y0752160D01*
X0137284Y0752298D01*
X0137369Y0752435D01*
X0137457Y0752569D01*
X0137549Y0752701D01*
X0137644Y0752831D01*
X0137742Y0752959D01*
X0137843Y0753084D01*
X0137947Y0753206D01*
X0138054Y0753326D01*
X0138164Y0753443D01*
X0138277Y0753558D01*
X0138393Y0753669D01*
X0138512Y0753778D01*
X0138633Y0753883D01*
X0138757Y0753986D01*
X0138883Y0754086D01*
X0139011Y0754182D01*
X0139142Y0754275D01*
X0139276Y0754365D01*
X0139411Y0754452D01*
X0139549Y0754535D01*
X0139688Y0754615D01*
X0139830Y0754691D01*
X0139973Y0754764D01*
X0140118Y0754833D01*
X0140265Y0754899D01*
X0140413Y0754961D01*
X0140563Y0755019D01*
X0140714Y0755074D01*
X0140867Y0755125D01*
X0141021Y0755172D01*
X0141176Y0755215D01*
X0141332Y0755254D01*
X0141488Y0755290D01*
X0141646Y0755321D01*
X0141804Y0755349D01*
X0141963Y0755373D01*
X0142123Y0755393D01*
X0142283Y0755409D01*
X0142443Y0755421D01*
X0142604Y0755429D01*
X0142765Y0755433D01*
X0142925Y0755433D01*
X0143086Y0755429D01*
X0143247Y0755421D01*
X0143407Y0755409D01*
X0143567Y0755393D01*
X0143727Y0755373D01*
X0143886Y0755349D01*
X0144044Y0755321D01*
X0144202Y0755290D01*
X0144358Y0755254D01*
X0144514Y0755215D01*
X0144669Y0755172D01*
X0144823Y0755125D01*
X0144976Y0755074D01*
X0145127Y0755019D01*
X0145277Y0754961D01*
X0145425Y0754899D01*
X0145572Y0754833D01*
X0145717Y0754764D01*
X0145860Y0754691D01*
X0146002Y0754615D01*
X0146141Y0754535D01*
X0146279Y0754452D01*
X0146414Y0754365D01*
X0146548Y0754275D01*
X0146679Y0754182D01*
X0146807Y0754086D01*
X0146933Y0753986D01*
X0147057Y0753883D01*
X0147178Y0753778D01*
X0147297Y0753669D01*
X0147413Y0753558D01*
X0147526Y0753443D01*
X0147636Y0753326D01*
X0147743Y0753206D01*
X0147847Y0753084D01*
X0147948Y0752959D01*
X0148046Y0752831D01*
X0148141Y0752701D01*
X0148233Y0752569D01*
X0148321Y0752435D01*
X0148406Y0752298D01*
X0148488Y0752160D01*
X0148566Y0752019D01*
X0148640Y0751877D01*
X0148711Y0751733D01*
X0148779Y0751587D01*
X0148842Y0751439D01*
X0148903Y0751290D01*
X0148959Y0751139D01*
X0149012Y0750987D01*
X0149061Y0750834D01*
X0149106Y0750680D01*
X0149147Y0750525D01*
X0149185Y0750368D01*
X0149218Y0750211D01*
X0149248Y0750053D01*
X0149274Y0749894D01*
X0149295Y0749735D01*
X0149313Y0749575D01*
X0149327Y0749415D01*
X0149337Y0749254D01*
X0149343Y0749094D01*
X0149345Y0748933D01*
X0149343Y0748772D01*
X0149337Y0748612D01*
X0149327Y0748451D01*
X0149313Y0748291D01*
X0149295Y0748131D01*
X0149274Y0747972D01*
X0149248Y0747813D01*
X0149218Y0747655D01*
X0149185Y0747498D01*
X0149147Y0747341D01*
X0149106Y0747186D01*
X0149061Y0747032D01*
X0149012Y0746879D01*
X0148959Y0746727D01*
X0148903Y0746576D01*
X0148842Y0746427D01*
X0148779Y0746279D01*
X0148711Y0746133D01*
X0148640Y0745989D01*
X0148566Y0745847D01*
X0148488Y0745706D01*
X0148406Y0745568D01*
X0148321Y0745431D01*
X0148233Y0745297D01*
X0148141Y0745165D01*
X0148046Y0745035D01*
X0147948Y0744907D01*
X0147847Y0744782D01*
X0147743Y0744660D01*
X0147636Y0744540D01*
X0147526Y0744423D01*
X0147413Y0744308D01*
X0147297Y0744197D01*
X0147178Y0744088D01*
X0147057Y0743983D01*
X0146933Y0743880D01*
X0146807Y0743780D01*
X0146679Y0743684D01*
X0146548Y0743591D01*
X0146414Y0743501D01*
X0146279Y0743414D01*
X0146141Y0743331D01*
X0146002Y0743251D01*
X0145860Y0743175D01*
X0145717Y0743102D01*
X0145572Y0743033D01*
X0145425Y0742967D01*
X0145277Y0742905D01*
X0145127Y0742847D01*
X0144976Y0742792D01*
X0144823Y0742741D01*
X0144669Y0742694D01*
X0144514Y0742651D01*
X0144358Y0742612D01*
X0144202Y0742576D01*
X0144044Y0742545D01*
X0143886Y0742517D01*
X0143727Y0742493D01*
X0143567Y0742473D01*
X0143407Y0742457D01*
X0143247Y0742445D01*
X0143086Y0742437D01*
X0142925Y0742433D01*
X0142765Y0742433D01*
X0142604Y0742437D01*
X0142443Y0742445D01*
X0142283Y0742457D01*
X0142123Y0742473D01*
X0141963Y0742493D01*
X0141804Y0742517D01*
X0141646Y0742545D01*
X0141488Y0742576D01*
X0141332Y0742612D01*
X0141176Y0742651D01*
X0141021Y0742694D01*
X0140867Y0742741D01*
X0140714Y0742792D01*
X0140563Y0742847D01*
X0140413Y0742905D01*
X0140265Y0742967D01*
X0140118Y0743033D01*
X0139973Y0743102D01*
X0139830Y0743175D01*
X0139688Y0743251D01*
X0139549Y0743331D01*
X0139411Y0743414D01*
X0139276Y0743501D01*
X0139142Y0743591D01*
X0139011Y0743684D01*
X0138883Y0743780D01*
X0138757Y0743880D01*
X0138633Y0743983D01*
X0138512Y0744088D01*
X0138393Y0744197D01*
X0138277Y0744308D01*
X0138164Y0744423D01*
X0138054Y0744540D01*
X0137947Y0744660D01*
X0137843Y0744782D01*
X0137742Y0744907D01*
X0137644Y0745035D01*
X0137549Y0745165D01*
X0137457Y0745297D01*
X0137369Y0745431D01*
X0137284Y0745568D01*
X0137202Y0745706D01*
X0137124Y0745847D01*
X0137050Y0745989D01*
X0136979Y0746133D01*
X0136911Y0746279D01*
X0136848Y0746427D01*
X0136787Y0746576D01*
X0136731Y0746727D01*
X0136678Y0746879D01*
X0136629Y0747032D01*
X0136584Y0747186D01*
X0136543Y0747341D01*
X0136505Y0747498D01*
X0136472Y0747655D01*
X0136442Y0747813D01*
X0136416Y0747972D01*
X0136395Y0748131D01*
X0136377Y0748291D01*
X0136363Y0748451D01*
X0136353Y0748612D01*
X0136347Y0748772D01*
X0136345Y0748933D01*
X0133845Y0803933D02*
X0133845Y0837683D01*
X0123845Y0837683D02*
X0123845Y0803933D01*
X0143845Y0803933D02*
X0143845Y0837683D01*
X0153845Y0837683D02*
X0153845Y0803933D01*
X0163845Y0803933D02*
X0163845Y0837683D01*
X0173845Y0837683D02*
X0173845Y0803933D01*
X0183845Y0803933D02*
X0183845Y0837683D01*
X0193845Y0837683D02*
X0193845Y0803933D01*
X0203845Y0803933D02*
X0203845Y0837683D01*
X0213845Y0837683D02*
X0213845Y0803933D01*
X0223845Y0803933D02*
X0223845Y0837683D01*
X0233845Y0837683D02*
X0233845Y0803933D01*
X0243845Y0803933D02*
X0243845Y0837683D01*
X0253845Y0837683D02*
X0253845Y0803933D01*
X0263845Y0803933D02*
X0263845Y0837683D01*
X0273845Y0837683D02*
X0273845Y0803933D01*
X0283845Y0803933D02*
X0283845Y0837683D01*
D11*
X0459845Y0279283D03*
X0459845Y0278883D03*
X0459845Y0278483D03*
X0477445Y0278483D03*
X0477445Y0278883D03*
X0477445Y0279283D03*
X0477445Y0277333D03*
X0477445Y0276933D03*
X0477445Y0276533D03*
X0477445Y0274133D03*
X0477445Y0273733D03*
X0477445Y0273333D03*
X0495045Y0273333D03*
X0495045Y0273733D03*
X0495045Y0274133D03*
X0495045Y0278483D03*
X0495045Y0278883D03*
X0495045Y0279283D03*
X0509845Y0279283D03*
X0509845Y0278883D03*
X0509845Y0278483D03*
X0527445Y0278483D03*
X0527445Y0278883D03*
X0527445Y0279283D03*
X0527445Y0277333D03*
X0527445Y0276933D03*
X0527445Y0276533D03*
X0527445Y0274133D03*
X0527445Y0273733D03*
X0527445Y0273333D03*
D12*
X0521445Y0274533D03*
X0521445Y0274933D03*
X0521445Y0275333D03*
X0521445Y0275733D03*
X0521445Y0276133D03*
X0518645Y0276133D03*
X0518645Y0275733D03*
X0518645Y0275333D03*
X0518645Y0274933D03*
X0518645Y0274533D03*
X0518645Y0274133D03*
X0518645Y0273733D03*
X0518645Y0273333D03*
X0515845Y0273333D03*
X0515845Y0273733D03*
X0515845Y0274133D03*
X0515845Y0274533D03*
X0515845Y0274933D03*
X0515845Y0275333D03*
X0515845Y0275733D03*
X0515845Y0276133D03*
X0515845Y0276533D03*
X0515845Y0276933D03*
X0515845Y0277333D03*
X0515845Y0277683D03*
X0515845Y0277733D03*
X0515845Y0278083D03*
X0515845Y0278133D03*
X0515845Y0278533D03*
X0518645Y0278533D03*
X0518645Y0278483D03*
X0518645Y0278133D03*
X0518645Y0278083D03*
X0518645Y0277733D03*
X0518645Y0277683D03*
X0518645Y0277333D03*
X0518645Y0276933D03*
X0518645Y0276533D03*
X0518645Y0278883D03*
X0518645Y0279283D03*
X0518645Y0280883D03*
X0518645Y0281283D03*
X0518645Y0281683D03*
X0533445Y0278533D03*
X0533445Y0278133D03*
X0533445Y0278083D03*
X0533445Y0277733D03*
X0533445Y0277683D03*
X0503845Y0277683D03*
X0503845Y0277733D03*
X0503845Y0278083D03*
X0503845Y0278133D03*
X0503845Y0278533D03*
X0503845Y0277333D03*
X0503845Y0276933D03*
X0503845Y0276533D03*
X0503845Y0276133D03*
X0503845Y0275733D03*
X0503845Y0275333D03*
X0503845Y0274933D03*
X0503845Y0274533D03*
X0503845Y0274133D03*
X0503845Y0273733D03*
X0503845Y0273333D03*
X0501045Y0274533D03*
X0501045Y0274933D03*
X0501045Y0275333D03*
X0501045Y0275733D03*
X0501045Y0276133D03*
X0501045Y0276533D03*
X0501045Y0276933D03*
X0501045Y0277333D03*
X0501045Y0277683D03*
X0501045Y0277733D03*
X0501045Y0278083D03*
X0501045Y0278133D03*
X0501045Y0278533D03*
X0486245Y0278533D03*
X0486245Y0278483D03*
X0486245Y0278133D03*
X0486245Y0278083D03*
X0486245Y0277733D03*
X0486245Y0277683D03*
X0486245Y0277333D03*
X0486245Y0276933D03*
X0486245Y0276533D03*
X0486245Y0276133D03*
X0486245Y0275733D03*
X0486245Y0275333D03*
X0486245Y0274933D03*
X0486245Y0274533D03*
X0486245Y0274133D03*
X0486245Y0273733D03*
X0486245Y0273333D03*
X0483445Y0274533D03*
X0483445Y0274933D03*
X0483445Y0275333D03*
X0483445Y0275733D03*
X0483445Y0276133D03*
X0486245Y0278883D03*
X0486245Y0279283D03*
X0486245Y0279683D03*
X0486245Y0280083D03*
X0486245Y0280483D03*
X0486245Y0280883D03*
X0486245Y0281283D03*
X0486245Y0281683D03*
X0486245Y0282083D03*
X0471445Y0278533D03*
X0471445Y0278133D03*
X0471445Y0278083D03*
X0471445Y0277733D03*
X0471445Y0277683D03*
X0471445Y0276133D03*
X0471445Y0275733D03*
X0471445Y0275333D03*
X0471445Y0274933D03*
X0471445Y0274533D03*
X0468645Y0274533D03*
X0468645Y0274133D03*
X0468645Y0273733D03*
X0468645Y0273333D03*
X0468645Y0274933D03*
X0468645Y0275333D03*
X0468645Y0275733D03*
X0468645Y0276133D03*
X0468645Y0276533D03*
X0468645Y0276933D03*
X0468645Y0277333D03*
X0468645Y0277683D03*
X0468645Y0277733D03*
X0468645Y0278083D03*
X0468645Y0278133D03*
X0468645Y0278483D03*
X0468645Y0278533D03*
X0468645Y0278883D03*
X0468645Y0279283D03*
X0468645Y0280883D03*
X0468645Y0281283D03*
X0468645Y0281683D03*
X0465845Y0278533D03*
X0465845Y0278133D03*
X0465845Y0278083D03*
X0465845Y0277733D03*
X0465845Y0277683D03*
X0465845Y0277333D03*
X0465845Y0276933D03*
X0465845Y0276533D03*
X0465845Y0276133D03*
X0465845Y0275733D03*
X0465845Y0275333D03*
X0465845Y0274933D03*
X0465845Y0274533D03*
X0465845Y0274133D03*
X0465845Y0273733D03*
X0465845Y0273333D03*
D13*
X0466775Y0738483D02*
X0464639Y0738483D01*
X0463572Y0739551D01*
X0463572Y0744889D01*
X0461397Y0744889D02*
X0461397Y0738483D01*
X0457126Y0738483D01*
X0459262Y0741686D02*
X0461397Y0741686D01*
X0461397Y0744889D02*
X0457126Y0744889D01*
X0448506Y0743821D02*
X0447438Y0744889D01*
X0445303Y0744889D01*
X0444235Y0743821D01*
X0444235Y0742753D01*
X0448506Y0738483D01*
X0444235Y0738483D01*
X0466775Y0738483D02*
X0467842Y0739551D01*
X0467842Y0744889D01*
X0470017Y0743821D02*
X0471085Y0744889D01*
X0473220Y0744889D01*
X0474288Y0743821D01*
X0474288Y0742753D01*
X0473220Y0741686D01*
X0471085Y0741686D01*
X0470017Y0740618D01*
X0470017Y0739551D01*
X0471085Y0738483D01*
X0473220Y0738483D01*
X0474288Y0739551D01*
X0476463Y0739551D02*
X0477530Y0738483D01*
X0479666Y0738483D01*
X0480733Y0739551D01*
X0479666Y0741686D02*
X0477530Y0741686D01*
X0476463Y0740618D01*
X0476463Y0739551D01*
X0479666Y0741686D02*
X0480733Y0742753D01*
X0480733Y0743821D01*
X0479666Y0744889D01*
X0477530Y0744889D01*
X0476463Y0743821D01*
X0482895Y0744889D02*
X0485030Y0744889D01*
X0483963Y0744889D02*
X0483963Y0738483D01*
X0485030Y0738483D02*
X0482895Y0738483D01*
X0008966Y0182962D02*
X0007898Y0182962D01*
X0006831Y0181895D01*
X0006831Y0178692D01*
X0008966Y0178692D01*
X0010033Y0179760D01*
X0010033Y0181895D01*
X0008966Y0182962D01*
X0004695Y0180827D02*
X0006831Y0178692D01*
X0005763Y0176517D02*
X0010033Y0172247D01*
X0010033Y0176517D01*
X0005763Y0176517D02*
X0004695Y0176517D01*
X0003628Y0175449D01*
X0003628Y0173314D01*
X0004695Y0172247D01*
X0008966Y0170091D02*
X0010033Y0170091D01*
X0010033Y0169024D01*
X0008966Y0169024D01*
X0008966Y0170091D01*
X0008966Y0166849D02*
X0010033Y0165781D01*
X0010033Y0163646D01*
X0008966Y0162578D01*
X0007898Y0162578D01*
X0006831Y0163646D01*
X0006831Y0165781D01*
X0007898Y0166849D01*
X0008966Y0166849D01*
X0006831Y0165781D02*
X0005763Y0166849D01*
X0004695Y0166849D01*
X0003628Y0165781D01*
X0003628Y0163646D01*
X0004695Y0162578D01*
X0005763Y0162578D01*
X0006831Y0163646D01*
X0007898Y0160403D02*
X0006831Y0159336D01*
X0006831Y0156133D01*
X0008966Y0156133D01*
X0010033Y0157201D01*
X0010033Y0159336D01*
X0008966Y0160403D01*
X0007898Y0160403D01*
X0004695Y0158268D02*
X0006831Y0156133D01*
X0004695Y0158268D02*
X0003628Y0160403D01*
X0004695Y0180827D02*
X0003628Y0182962D01*
D14*
X0004918Y0033933D02*
X0028845Y0033933D01*
X0012595Y0034189D02*
X0013619Y0044169D01*
X0013852Y0044169D02*
X0012595Y0034189D01*
X0011572Y0044169D01*
X0011338Y0044169D02*
X0013852Y0044169D01*
X0013107Y0044169D02*
X0012595Y0034189D01*
X0012083Y0044169D01*
X0011338Y0044169D02*
X0012595Y0034189D01*
X0012595Y0302427D01*
X0013619Y0292447D01*
X0013852Y0292447D02*
X0012595Y0302427D01*
X0011572Y0292447D01*
X0011338Y0292447D02*
X0013852Y0292447D01*
X0013107Y0292447D02*
X0012595Y0302427D01*
X0012083Y0292447D01*
X0011338Y0292447D02*
X0012595Y0302427D01*
X0004918Y0302683D02*
X0028845Y0302683D01*
M02*
