G75*
%MOIN*%
%OFA0B0*%
%FSLAX25Y25*%
%IPPOS*%
%LPD*%
%AMOC8*
5,1,8,0,0,1.08239X$1,22.5*
%
%ADD10C,0.00000*%
%ADD11C,0.00512*%
%ADD12C,0.00600*%
%ADD13C,0.06000*%
%ADD14C,0.07400*%
%ADD15C,0.13800*%
%ADD16OC8,0.06000*%
%ADD17OC8,0.07100*%
%ADD18C,0.07100*%
%ADD19OC8,0.09650*%
%ADD20C,0.09650*%
%ADD21OC8,0.14643*%
%ADD22R,0.06400X0.31800*%
%ADD23C,0.06400*%
%ADD24C,0.07400*%
%ADD25C,0.14643*%
%ADD26C,0.06800*%
%ADD27C,0.05556*%
%ADD28C,0.07493*%
%ADD29C,0.13398*%
%ADD30C,0.07600*%
%ADD31C,0.03200*%
%ADD32C,0.04762*%
%ADD33C,0.18580*%
%ADD34C,0.13461*%
%ADD35C,0.18186*%
D10*
X0028845Y0033933D02*
X0028845Y0837683D01*
X0073845Y0837683D01*
X0073845Y0813933D01*
X0083845Y0813933D02*
X0083845Y0837683D01*
X0073845Y0837683D01*
X0083845Y0837683D02*
X0085755Y0837683D01*
X0085755Y0803500D01*
X0092398Y0803500D01*
X0092398Y0837683D01*
X0103845Y0837683D01*
X0103845Y0806433D01*
X0113845Y0803933D02*
X0113845Y0837683D01*
X0103845Y0837683D02*
X0641266Y0837683D01*
X0641266Y0033933D01*
X0028845Y0033933D01*
X0136345Y0748933D02*
X0136347Y0749094D01*
X0136353Y0749254D01*
X0136363Y0749415D01*
X0136377Y0749575D01*
X0136395Y0749735D01*
X0136416Y0749894D01*
X0136442Y0750053D01*
X0136472Y0750211D01*
X0136505Y0750368D01*
X0136543Y0750525D01*
X0136584Y0750680D01*
X0136629Y0750834D01*
X0136678Y0750987D01*
X0136731Y0751139D01*
X0136787Y0751290D01*
X0136848Y0751439D01*
X0136911Y0751587D01*
X0136979Y0751733D01*
X0137050Y0751877D01*
X0137124Y0752019D01*
X0137202Y0752160D01*
X0137284Y0752298D01*
X0137369Y0752435D01*
X0137457Y0752569D01*
X0137549Y0752701D01*
X0137644Y0752831D01*
X0137742Y0752959D01*
X0137843Y0753084D01*
X0137947Y0753206D01*
X0138054Y0753326D01*
X0138164Y0753443D01*
X0138277Y0753558D01*
X0138393Y0753669D01*
X0138512Y0753778D01*
X0138633Y0753883D01*
X0138757Y0753986D01*
X0138883Y0754086D01*
X0139011Y0754182D01*
X0139142Y0754275D01*
X0139276Y0754365D01*
X0139411Y0754452D01*
X0139549Y0754535D01*
X0139688Y0754615D01*
X0139830Y0754691D01*
X0139973Y0754764D01*
X0140118Y0754833D01*
X0140265Y0754899D01*
X0140413Y0754961D01*
X0140563Y0755019D01*
X0140714Y0755074D01*
X0140867Y0755125D01*
X0141021Y0755172D01*
X0141176Y0755215D01*
X0141332Y0755254D01*
X0141488Y0755290D01*
X0141646Y0755321D01*
X0141804Y0755349D01*
X0141963Y0755373D01*
X0142123Y0755393D01*
X0142283Y0755409D01*
X0142443Y0755421D01*
X0142604Y0755429D01*
X0142765Y0755433D01*
X0142925Y0755433D01*
X0143086Y0755429D01*
X0143247Y0755421D01*
X0143407Y0755409D01*
X0143567Y0755393D01*
X0143727Y0755373D01*
X0143886Y0755349D01*
X0144044Y0755321D01*
X0144202Y0755290D01*
X0144358Y0755254D01*
X0144514Y0755215D01*
X0144669Y0755172D01*
X0144823Y0755125D01*
X0144976Y0755074D01*
X0145127Y0755019D01*
X0145277Y0754961D01*
X0145425Y0754899D01*
X0145572Y0754833D01*
X0145717Y0754764D01*
X0145860Y0754691D01*
X0146002Y0754615D01*
X0146141Y0754535D01*
X0146279Y0754452D01*
X0146414Y0754365D01*
X0146548Y0754275D01*
X0146679Y0754182D01*
X0146807Y0754086D01*
X0146933Y0753986D01*
X0147057Y0753883D01*
X0147178Y0753778D01*
X0147297Y0753669D01*
X0147413Y0753558D01*
X0147526Y0753443D01*
X0147636Y0753326D01*
X0147743Y0753206D01*
X0147847Y0753084D01*
X0147948Y0752959D01*
X0148046Y0752831D01*
X0148141Y0752701D01*
X0148233Y0752569D01*
X0148321Y0752435D01*
X0148406Y0752298D01*
X0148488Y0752160D01*
X0148566Y0752019D01*
X0148640Y0751877D01*
X0148711Y0751733D01*
X0148779Y0751587D01*
X0148842Y0751439D01*
X0148903Y0751290D01*
X0148959Y0751139D01*
X0149012Y0750987D01*
X0149061Y0750834D01*
X0149106Y0750680D01*
X0149147Y0750525D01*
X0149185Y0750368D01*
X0149218Y0750211D01*
X0149248Y0750053D01*
X0149274Y0749894D01*
X0149295Y0749735D01*
X0149313Y0749575D01*
X0149327Y0749415D01*
X0149337Y0749254D01*
X0149343Y0749094D01*
X0149345Y0748933D01*
X0149343Y0748772D01*
X0149337Y0748612D01*
X0149327Y0748451D01*
X0149313Y0748291D01*
X0149295Y0748131D01*
X0149274Y0747972D01*
X0149248Y0747813D01*
X0149218Y0747655D01*
X0149185Y0747498D01*
X0149147Y0747341D01*
X0149106Y0747186D01*
X0149061Y0747032D01*
X0149012Y0746879D01*
X0148959Y0746727D01*
X0148903Y0746576D01*
X0148842Y0746427D01*
X0148779Y0746279D01*
X0148711Y0746133D01*
X0148640Y0745989D01*
X0148566Y0745847D01*
X0148488Y0745706D01*
X0148406Y0745568D01*
X0148321Y0745431D01*
X0148233Y0745297D01*
X0148141Y0745165D01*
X0148046Y0745035D01*
X0147948Y0744907D01*
X0147847Y0744782D01*
X0147743Y0744660D01*
X0147636Y0744540D01*
X0147526Y0744423D01*
X0147413Y0744308D01*
X0147297Y0744197D01*
X0147178Y0744088D01*
X0147057Y0743983D01*
X0146933Y0743880D01*
X0146807Y0743780D01*
X0146679Y0743684D01*
X0146548Y0743591D01*
X0146414Y0743501D01*
X0146279Y0743414D01*
X0146141Y0743331D01*
X0146002Y0743251D01*
X0145860Y0743175D01*
X0145717Y0743102D01*
X0145572Y0743033D01*
X0145425Y0742967D01*
X0145277Y0742905D01*
X0145127Y0742847D01*
X0144976Y0742792D01*
X0144823Y0742741D01*
X0144669Y0742694D01*
X0144514Y0742651D01*
X0144358Y0742612D01*
X0144202Y0742576D01*
X0144044Y0742545D01*
X0143886Y0742517D01*
X0143727Y0742493D01*
X0143567Y0742473D01*
X0143407Y0742457D01*
X0143247Y0742445D01*
X0143086Y0742437D01*
X0142925Y0742433D01*
X0142765Y0742433D01*
X0142604Y0742437D01*
X0142443Y0742445D01*
X0142283Y0742457D01*
X0142123Y0742473D01*
X0141963Y0742493D01*
X0141804Y0742517D01*
X0141646Y0742545D01*
X0141488Y0742576D01*
X0141332Y0742612D01*
X0141176Y0742651D01*
X0141021Y0742694D01*
X0140867Y0742741D01*
X0140714Y0742792D01*
X0140563Y0742847D01*
X0140413Y0742905D01*
X0140265Y0742967D01*
X0140118Y0743033D01*
X0139973Y0743102D01*
X0139830Y0743175D01*
X0139688Y0743251D01*
X0139549Y0743331D01*
X0139411Y0743414D01*
X0139276Y0743501D01*
X0139142Y0743591D01*
X0139011Y0743684D01*
X0138883Y0743780D01*
X0138757Y0743880D01*
X0138633Y0743983D01*
X0138512Y0744088D01*
X0138393Y0744197D01*
X0138277Y0744308D01*
X0138164Y0744423D01*
X0138054Y0744540D01*
X0137947Y0744660D01*
X0137843Y0744782D01*
X0137742Y0744907D01*
X0137644Y0745035D01*
X0137549Y0745165D01*
X0137457Y0745297D01*
X0137369Y0745431D01*
X0137284Y0745568D01*
X0137202Y0745706D01*
X0137124Y0745847D01*
X0137050Y0745989D01*
X0136979Y0746133D01*
X0136911Y0746279D01*
X0136848Y0746427D01*
X0136787Y0746576D01*
X0136731Y0746727D01*
X0136678Y0746879D01*
X0136629Y0747032D01*
X0136584Y0747186D01*
X0136543Y0747341D01*
X0136505Y0747498D01*
X0136472Y0747655D01*
X0136442Y0747813D01*
X0136416Y0747972D01*
X0136395Y0748131D01*
X0136377Y0748291D01*
X0136363Y0748451D01*
X0136353Y0748612D01*
X0136347Y0748772D01*
X0136345Y0748933D01*
X0133845Y0803933D02*
X0133845Y0837683D01*
X0123845Y0837683D02*
X0123845Y0803933D01*
X0143845Y0803933D02*
X0143845Y0837683D01*
X0153845Y0837683D02*
X0153845Y0803933D01*
X0163845Y0803933D02*
X0163845Y0837683D01*
X0173845Y0837683D02*
X0173845Y0803933D01*
X0183845Y0803933D02*
X0183845Y0837683D01*
X0193845Y0837683D02*
X0193845Y0803933D01*
X0203845Y0803933D02*
X0203845Y0837683D01*
X0213845Y0837683D02*
X0213845Y0803933D01*
X0223845Y0803933D02*
X0223845Y0837683D01*
X0233845Y0837683D02*
X0233845Y0803933D01*
X0243845Y0803933D02*
X0243845Y0837683D01*
X0253845Y0837683D02*
X0253845Y0803933D01*
X0263845Y0803933D02*
X0263845Y0837683D01*
X0273845Y0837683D02*
X0273845Y0803933D01*
X0283845Y0803933D02*
X0283845Y0837683D01*
D11*
X0028845Y0033933D02*
X0004918Y0033933D01*
X0012595Y0034189D02*
X0013619Y0044169D01*
X0013852Y0044169D02*
X0012595Y0034189D01*
X0011572Y0044169D01*
X0011338Y0044169D02*
X0013852Y0044169D01*
X0013107Y0044169D02*
X0012595Y0034189D01*
X0012083Y0044169D01*
X0011338Y0044169D02*
X0012595Y0034189D01*
X0012595Y0302427D01*
X0013619Y0292447D01*
X0013852Y0292447D02*
X0012595Y0302427D01*
X0011572Y0292447D01*
X0011338Y0292447D02*
X0013852Y0292447D01*
X0013107Y0292447D02*
X0012595Y0302427D01*
X0012083Y0292447D01*
X0011338Y0292447D02*
X0012595Y0302427D01*
X0004918Y0302683D02*
X0028845Y0302683D01*
D12*
X0008966Y0182962D02*
X0007898Y0182962D01*
X0006831Y0181895D01*
X0006831Y0178692D01*
X0008966Y0178692D01*
X0010033Y0179760D01*
X0010033Y0181895D01*
X0008966Y0182962D01*
X0004695Y0180827D02*
X0006831Y0178692D01*
X0005763Y0176517D02*
X0010033Y0172247D01*
X0010033Y0176517D01*
X0005763Y0176517D02*
X0004695Y0176517D01*
X0003628Y0175449D01*
X0003628Y0173314D01*
X0004695Y0172247D01*
X0008966Y0170091D02*
X0010033Y0170091D01*
X0010033Y0169024D01*
X0008966Y0169024D01*
X0008966Y0170091D01*
X0008966Y0166849D02*
X0010033Y0165781D01*
X0010033Y0163646D01*
X0008966Y0162578D01*
X0007898Y0162578D01*
X0006831Y0163646D01*
X0006831Y0165781D01*
X0007898Y0166849D01*
X0008966Y0166849D01*
X0006831Y0165781D02*
X0005763Y0166849D01*
X0004695Y0166849D01*
X0003628Y0165781D01*
X0003628Y0163646D01*
X0004695Y0162578D01*
X0005763Y0162578D01*
X0006831Y0163646D01*
X0007898Y0160403D02*
X0006831Y0159336D01*
X0006831Y0156133D01*
X0008966Y0156133D01*
X0010033Y0157201D01*
X0010033Y0159336D01*
X0008966Y0160403D01*
X0007898Y0160403D01*
X0004695Y0158268D02*
X0006831Y0156133D01*
X0004695Y0158268D02*
X0003628Y0160403D01*
X0004695Y0180827D02*
X0003628Y0182962D01*
D13*
X0071245Y0353933D02*
X0076445Y0353933D01*
X0076445Y0363933D02*
X0071245Y0363933D01*
X0071245Y0373933D02*
X0076445Y0373933D01*
X0076445Y0383933D02*
X0071245Y0383933D01*
X0071245Y0393933D02*
X0076445Y0393933D01*
X0076445Y0403933D02*
X0071245Y0403933D01*
X0071245Y0413933D02*
X0076445Y0413933D01*
X0101245Y0413933D02*
X0106445Y0413933D01*
X0106445Y0403933D02*
X0101245Y0403933D01*
X0101245Y0393933D02*
X0106445Y0393933D01*
X0106445Y0383933D02*
X0101245Y0383933D01*
X0101245Y0373933D02*
X0106445Y0373933D01*
X0106445Y0363933D02*
X0101245Y0363933D01*
X0101245Y0353933D02*
X0106445Y0353933D01*
X0131245Y0353933D02*
X0136445Y0353933D01*
X0136445Y0363933D02*
X0131245Y0363933D01*
X0131245Y0373933D02*
X0136445Y0373933D01*
X0136445Y0383933D02*
X0131245Y0383933D01*
X0131245Y0393933D02*
X0136445Y0393933D01*
X0136445Y0403933D02*
X0131245Y0403933D01*
X0131245Y0413933D02*
X0136445Y0413933D01*
X0161245Y0413933D02*
X0166445Y0413933D01*
X0166445Y0403933D02*
X0161245Y0403933D01*
X0161245Y0393933D02*
X0166445Y0393933D01*
X0166445Y0383933D02*
X0161245Y0383933D01*
X0161245Y0373933D02*
X0166445Y0373933D01*
X0166445Y0363933D02*
X0161245Y0363933D01*
X0161245Y0353933D02*
X0166445Y0353933D01*
X0191245Y0353933D02*
X0196445Y0353933D01*
X0196445Y0363933D02*
X0191245Y0363933D01*
X0191245Y0373933D02*
X0196445Y0373933D01*
X0196445Y0383933D02*
X0191245Y0383933D01*
X0191245Y0393933D02*
X0196445Y0393933D01*
X0196445Y0403933D02*
X0191245Y0403933D01*
X0191245Y0413933D02*
X0196445Y0413933D01*
X0221245Y0413933D02*
X0226445Y0413933D01*
X0226445Y0403933D02*
X0221245Y0403933D01*
X0221245Y0393933D02*
X0226445Y0393933D01*
X0226445Y0383933D02*
X0221245Y0383933D01*
X0221245Y0373933D02*
X0226445Y0373933D01*
X0226445Y0363933D02*
X0221245Y0363933D01*
X0221245Y0353933D02*
X0226445Y0353933D01*
X0251245Y0353933D02*
X0256445Y0353933D01*
X0256445Y0363933D02*
X0251245Y0363933D01*
X0251245Y0373933D02*
X0256445Y0373933D01*
X0256445Y0383933D02*
X0251245Y0383933D01*
X0251245Y0393933D02*
X0256445Y0393933D01*
X0256445Y0403933D02*
X0251245Y0403933D01*
X0251245Y0413933D02*
X0256445Y0413933D01*
X0281245Y0413933D02*
X0286445Y0413933D01*
X0286445Y0403933D02*
X0281245Y0403933D01*
X0281245Y0393933D02*
X0286445Y0393933D01*
X0286445Y0383933D02*
X0281245Y0383933D01*
X0281245Y0373933D02*
X0286445Y0373933D01*
X0286445Y0363933D02*
X0281245Y0363933D01*
X0281245Y0353933D02*
X0286445Y0353933D01*
X0291245Y0323933D02*
X0296445Y0323933D01*
X0276445Y0323933D02*
X0271245Y0323933D01*
X0246445Y0323933D02*
X0241245Y0323933D01*
X0226445Y0323933D02*
X0221245Y0323933D01*
X0196445Y0323933D02*
X0191245Y0323933D01*
X0176445Y0323933D02*
X0171245Y0323933D01*
X0146445Y0323933D02*
X0141245Y0323933D01*
X0151245Y0473933D02*
X0156445Y0473933D01*
X0156445Y0483933D02*
X0151245Y0483933D01*
X0151245Y0493933D02*
X0156445Y0493933D01*
X0156445Y0503933D02*
X0151245Y0503933D01*
X0151245Y0513933D02*
X0156445Y0513933D01*
X0156445Y0523933D02*
X0151245Y0523933D01*
X0151245Y0533933D02*
X0156445Y0533933D01*
X0156445Y0543933D02*
X0151245Y0543933D01*
X0151245Y0560183D02*
X0156445Y0560183D01*
X0136445Y0568933D02*
X0131245Y0568933D01*
X0126445Y0560183D02*
X0121245Y0560183D01*
X0121445Y0543933D02*
X0116245Y0543933D01*
X0116245Y0533933D02*
X0121445Y0533933D01*
X0121445Y0523933D02*
X0116245Y0523933D01*
X0116245Y0513933D02*
X0121445Y0513933D01*
X0121445Y0503933D02*
X0116245Y0503933D01*
X0116245Y0493933D02*
X0121445Y0493933D01*
X0121445Y0483933D02*
X0116245Y0483933D01*
X0116245Y0473933D02*
X0121445Y0473933D01*
X0091445Y0473933D02*
X0086245Y0473933D01*
X0086245Y0483933D02*
X0091445Y0483933D01*
X0091445Y0493933D02*
X0086245Y0493933D01*
X0086245Y0503933D02*
X0091445Y0503933D01*
X0091445Y0513933D02*
X0086245Y0513933D01*
X0086245Y0523933D02*
X0091445Y0523933D01*
X0091445Y0533933D02*
X0086245Y0533933D01*
X0086245Y0543933D02*
X0091445Y0543933D01*
X0076445Y0568933D02*
X0071245Y0568933D01*
X0071245Y0578933D02*
X0076445Y0578933D01*
X0076445Y0588933D02*
X0071245Y0588933D01*
X0071245Y0598933D02*
X0076445Y0598933D01*
X0076445Y0608933D02*
X0071245Y0608933D01*
X0071245Y0618933D02*
X0076445Y0618933D01*
X0076445Y0628933D02*
X0071245Y0628933D01*
X0071245Y0638933D02*
X0076445Y0638933D01*
X0076445Y0648933D02*
X0071245Y0648933D01*
X0071245Y0658933D02*
X0076445Y0658933D01*
X0076445Y0668933D02*
X0071245Y0668933D01*
X0071245Y0678933D02*
X0076445Y0678933D01*
X0076445Y0688933D02*
X0071245Y0688933D01*
X0071245Y0698933D02*
X0076445Y0698933D01*
X0131245Y0698933D02*
X0136445Y0698933D01*
X0136445Y0688933D02*
X0131245Y0688933D01*
X0131245Y0678933D02*
X0136445Y0678933D01*
X0136445Y0668933D02*
X0131245Y0668933D01*
X0131245Y0658933D02*
X0136445Y0658933D01*
X0136445Y0648933D02*
X0131245Y0648933D01*
X0131245Y0638933D02*
X0136445Y0638933D01*
X0136445Y0628933D02*
X0131245Y0628933D01*
X0131245Y0618933D02*
X0136445Y0618933D01*
X0136445Y0608933D02*
X0131245Y0608933D01*
X0131245Y0598933D02*
X0136445Y0598933D01*
X0136445Y0588933D02*
X0131245Y0588933D01*
X0131245Y0578933D02*
X0136445Y0578933D01*
X0181245Y0543933D02*
X0186445Y0543933D01*
X0186445Y0533933D02*
X0181245Y0533933D01*
X0181245Y0523933D02*
X0186445Y0523933D01*
X0186445Y0513933D02*
X0181245Y0513933D01*
X0181245Y0503933D02*
X0186445Y0503933D01*
X0186445Y0493933D02*
X0181245Y0493933D01*
X0181245Y0483933D02*
X0186445Y0483933D01*
X0186445Y0473933D02*
X0181245Y0473933D01*
X0241245Y0518933D02*
X0246445Y0518933D01*
X0246445Y0528933D02*
X0241245Y0528933D01*
X0241245Y0538933D02*
X0246445Y0538933D01*
X0246445Y0548933D02*
X0241245Y0548933D01*
X0241245Y0558933D02*
X0246445Y0558933D01*
X0246445Y0568933D02*
X0241245Y0568933D01*
X0241245Y0578933D02*
X0246445Y0578933D01*
X0246445Y0588933D02*
X0241245Y0588933D01*
X0241245Y0598933D02*
X0246445Y0598933D01*
X0246445Y0608933D02*
X0241245Y0608933D01*
X0241245Y0618933D02*
X0246445Y0618933D01*
X0246445Y0628933D02*
X0241245Y0628933D01*
X0241245Y0638933D02*
X0246445Y0638933D01*
X0246445Y0648933D02*
X0241245Y0648933D01*
X0241245Y0658933D02*
X0246445Y0658933D01*
X0246445Y0668933D02*
X0241245Y0668933D01*
X0241245Y0678933D02*
X0246445Y0678933D01*
X0246445Y0688933D02*
X0241245Y0688933D01*
X0241245Y0698933D02*
X0246445Y0698933D01*
X0246445Y0708933D02*
X0241245Y0708933D01*
X0203845Y0736333D02*
X0203845Y0741533D01*
X0193845Y0741533D02*
X0193845Y0736333D01*
X0183845Y0736333D02*
X0183845Y0741533D01*
X0291245Y0743933D02*
X0296445Y0743933D01*
X0296445Y0733933D02*
X0291245Y0733933D01*
X0291245Y0753933D02*
X0296445Y0753933D01*
X0296445Y0763933D02*
X0291245Y0763933D01*
X0321245Y0763933D02*
X0326445Y0763933D01*
X0326445Y0753933D02*
X0321245Y0753933D01*
X0321245Y0743933D02*
X0326445Y0743933D01*
X0326445Y0733933D02*
X0321245Y0733933D01*
X0331245Y0713933D02*
X0336445Y0713933D01*
X0336445Y0703933D02*
X0331245Y0703933D01*
X0331245Y0693933D02*
X0336445Y0693933D01*
X0336445Y0683933D02*
X0331245Y0683933D01*
X0331245Y0673933D02*
X0336445Y0673933D01*
X0336445Y0663933D02*
X0331245Y0663933D01*
X0331245Y0653933D02*
X0336445Y0653933D01*
X0336445Y0643933D02*
X0331245Y0643933D01*
X0306445Y0638933D02*
X0301245Y0638933D01*
X0301245Y0628933D02*
X0306445Y0628933D01*
X0306445Y0618933D02*
X0301245Y0618933D01*
X0301245Y0608933D02*
X0306445Y0608933D01*
X0306445Y0598933D02*
X0301245Y0598933D01*
X0301245Y0588933D02*
X0306445Y0588933D01*
X0306445Y0578933D02*
X0301245Y0578933D01*
X0301245Y0568933D02*
X0306445Y0568933D01*
X0306445Y0558933D02*
X0301245Y0558933D01*
X0301245Y0548933D02*
X0306445Y0548933D01*
X0306445Y0538933D02*
X0301245Y0538933D01*
X0301245Y0528933D02*
X0306445Y0528933D01*
X0306445Y0518933D02*
X0301245Y0518933D01*
X0321245Y0518933D02*
X0326445Y0518933D01*
X0326445Y0508933D02*
X0321245Y0508933D01*
X0321245Y0498933D02*
X0326445Y0498933D01*
X0326445Y0488933D02*
X0321245Y0488933D01*
X0321245Y0478933D02*
X0326445Y0478933D01*
X0326445Y0468933D02*
X0321245Y0468933D01*
X0321245Y0458933D02*
X0326445Y0458933D01*
X0351245Y0458933D02*
X0356445Y0458933D01*
X0356445Y0468933D02*
X0351245Y0468933D01*
X0351245Y0478933D02*
X0356445Y0478933D01*
X0356445Y0488933D02*
X0351245Y0488933D01*
X0351245Y0498933D02*
X0356445Y0498933D01*
X0356445Y0508933D02*
X0351245Y0508933D01*
X0351245Y0518933D02*
X0356445Y0518933D01*
X0356445Y0528933D02*
X0351245Y0528933D01*
X0351245Y0538933D02*
X0356445Y0538933D01*
X0356445Y0548933D02*
X0351245Y0548933D01*
X0371245Y0528933D02*
X0376445Y0528933D01*
X0376445Y0518933D02*
X0371245Y0518933D01*
X0371245Y0508933D02*
X0376445Y0508933D01*
X0376445Y0498933D02*
X0371245Y0498933D01*
X0371245Y0488933D02*
X0376445Y0488933D01*
X0376445Y0478933D02*
X0371245Y0478933D01*
X0371245Y0468933D02*
X0376445Y0468933D01*
X0376445Y0458933D02*
X0371245Y0458933D01*
X0401245Y0458933D02*
X0406445Y0458933D01*
X0406445Y0468933D02*
X0401245Y0468933D01*
X0401245Y0478933D02*
X0406445Y0478933D01*
X0406445Y0488933D02*
X0401245Y0488933D01*
X0401245Y0498933D02*
X0406445Y0498933D01*
X0406445Y0508933D02*
X0401245Y0508933D01*
X0401245Y0518933D02*
X0406445Y0518933D01*
X0406445Y0528933D02*
X0401245Y0528933D01*
X0426245Y0518933D02*
X0431445Y0518933D01*
X0431445Y0508933D02*
X0426245Y0508933D01*
X0426245Y0498933D02*
X0431445Y0498933D01*
X0431445Y0488933D02*
X0426245Y0488933D01*
X0426245Y0478933D02*
X0431445Y0478933D01*
X0431445Y0468933D02*
X0426245Y0468933D01*
X0426245Y0458933D02*
X0431445Y0458933D01*
X0456245Y0458933D02*
X0461445Y0458933D01*
X0461445Y0468933D02*
X0456245Y0468933D01*
X0456245Y0478933D02*
X0461445Y0478933D01*
X0461445Y0488933D02*
X0456245Y0488933D01*
X0456245Y0498933D02*
X0461445Y0498933D01*
X0461445Y0508933D02*
X0456245Y0508933D01*
X0456245Y0518933D02*
X0461445Y0518933D01*
X0471245Y0518933D02*
X0476445Y0518933D01*
X0476445Y0508933D02*
X0471245Y0508933D01*
X0471245Y0498933D02*
X0476445Y0498933D01*
X0476445Y0488933D02*
X0471245Y0488933D01*
X0471245Y0478933D02*
X0476445Y0478933D01*
X0476445Y0468933D02*
X0471245Y0468933D01*
X0471245Y0458933D02*
X0476445Y0458933D01*
X0501245Y0458933D02*
X0506445Y0458933D01*
X0506445Y0468933D02*
X0501245Y0468933D01*
X0501245Y0478933D02*
X0506445Y0478933D01*
X0506445Y0488933D02*
X0501245Y0488933D01*
X0501245Y0498933D02*
X0506445Y0498933D01*
X0506445Y0508933D02*
X0501245Y0508933D01*
X0501245Y0518933D02*
X0506445Y0518933D01*
X0526245Y0518933D02*
X0531445Y0518933D01*
X0531445Y0508933D02*
X0526245Y0508933D01*
X0526245Y0498933D02*
X0531445Y0498933D01*
X0531445Y0488933D02*
X0526245Y0488933D01*
X0526245Y0478933D02*
X0531445Y0478933D01*
X0531445Y0468933D02*
X0526245Y0468933D01*
X0526245Y0458933D02*
X0531445Y0458933D01*
X0556245Y0458933D02*
X0561445Y0458933D01*
X0561445Y0468933D02*
X0556245Y0468933D01*
X0556245Y0478933D02*
X0561445Y0478933D01*
X0561445Y0488933D02*
X0556245Y0488933D01*
X0556245Y0498933D02*
X0561445Y0498933D01*
X0561445Y0508933D02*
X0556245Y0508933D01*
X0556245Y0518933D02*
X0561445Y0518933D01*
X0576245Y0518933D02*
X0581445Y0518933D01*
X0581445Y0508933D02*
X0576245Y0508933D01*
X0576245Y0498933D02*
X0581445Y0498933D01*
X0581445Y0488933D02*
X0576245Y0488933D01*
X0576245Y0478933D02*
X0581445Y0478933D01*
X0581445Y0468933D02*
X0576245Y0468933D01*
X0576245Y0458933D02*
X0581445Y0458933D01*
X0606245Y0458933D02*
X0611445Y0458933D01*
X0611445Y0468933D02*
X0606245Y0468933D01*
X0606245Y0478933D02*
X0611445Y0478933D01*
X0611445Y0488933D02*
X0606245Y0488933D01*
X0606245Y0498933D02*
X0611445Y0498933D01*
X0611445Y0508933D02*
X0606245Y0508933D01*
X0606245Y0518933D02*
X0611445Y0518933D01*
X0606445Y0543933D02*
X0601245Y0543933D01*
X0601245Y0553933D02*
X0606445Y0553933D01*
X0606445Y0563933D02*
X0601245Y0563933D01*
X0601245Y0573933D02*
X0606445Y0573933D01*
X0606445Y0583933D02*
X0601245Y0583933D01*
X0601245Y0593933D02*
X0606445Y0593933D01*
X0606445Y0603933D02*
X0601245Y0603933D01*
X0576445Y0603933D02*
X0571245Y0603933D01*
X0571245Y0593933D02*
X0576445Y0593933D01*
X0576445Y0583933D02*
X0571245Y0583933D01*
X0571245Y0573933D02*
X0576445Y0573933D01*
X0576445Y0563933D02*
X0571245Y0563933D01*
X0571245Y0553933D02*
X0576445Y0553933D01*
X0576445Y0543933D02*
X0571245Y0543933D01*
X0556445Y0543933D02*
X0551245Y0543933D01*
X0551245Y0553933D02*
X0556445Y0553933D01*
X0556445Y0563933D02*
X0551245Y0563933D01*
X0551245Y0573933D02*
X0556445Y0573933D01*
X0556445Y0583933D02*
X0551245Y0583933D01*
X0551245Y0593933D02*
X0556445Y0593933D01*
X0556445Y0603933D02*
X0551245Y0603933D01*
X0526445Y0603933D02*
X0521245Y0603933D01*
X0511445Y0603933D02*
X0506245Y0603933D01*
X0506245Y0593933D02*
X0511445Y0593933D01*
X0521245Y0593933D02*
X0526445Y0593933D01*
X0526445Y0583933D02*
X0521245Y0583933D01*
X0511445Y0583933D02*
X0506245Y0583933D01*
X0521245Y0573933D02*
X0526445Y0573933D01*
X0526445Y0563933D02*
X0521245Y0563933D01*
X0521245Y0553933D02*
X0526445Y0553933D01*
X0526445Y0543933D02*
X0521245Y0543933D01*
X0511445Y0613933D02*
X0506245Y0613933D01*
X0506245Y0623933D02*
X0511445Y0623933D01*
X0511445Y0633933D02*
X0506245Y0633933D01*
X0506245Y0643933D02*
X0511445Y0643933D01*
X0511445Y0653933D02*
X0506245Y0653933D01*
X0506245Y0663933D02*
X0511445Y0663933D01*
X0511445Y0673933D02*
X0506245Y0673933D01*
X0506245Y0683933D02*
X0511445Y0683933D01*
X0511445Y0693933D02*
X0506245Y0693933D01*
X0506245Y0703933D02*
X0511445Y0703933D01*
X0511445Y0713933D02*
X0506245Y0713933D01*
X0528845Y0716333D02*
X0528845Y0721533D01*
X0538845Y0721533D02*
X0538845Y0716333D01*
X0548845Y0716333D02*
X0548845Y0721533D01*
X0558845Y0721533D02*
X0558845Y0716333D01*
X0568845Y0716333D02*
X0568845Y0721533D01*
X0578845Y0721533D02*
X0578845Y0716333D01*
X0588845Y0716333D02*
X0588845Y0721533D01*
X0588845Y0746333D02*
X0588845Y0751533D01*
X0578845Y0751533D02*
X0578845Y0746333D01*
X0568845Y0746333D02*
X0568845Y0751533D01*
X0558845Y0751533D02*
X0558845Y0746333D01*
X0548845Y0746333D02*
X0548845Y0751533D01*
X0538845Y0751533D02*
X0538845Y0746333D01*
X0528845Y0746333D02*
X0528845Y0751533D01*
X0536245Y0773933D02*
X0541445Y0773933D01*
X0566245Y0773933D02*
X0571445Y0773933D01*
X0568845Y0671533D02*
X0568845Y0666333D01*
X0558845Y0666333D02*
X0558845Y0671533D01*
X0548845Y0671533D02*
X0548845Y0666333D01*
X0538845Y0666333D02*
X0538845Y0671533D01*
X0528845Y0671533D02*
X0528845Y0666333D01*
X0528845Y0641533D02*
X0528845Y0636333D01*
X0538845Y0636333D02*
X0538845Y0641533D01*
X0548845Y0641533D02*
X0548845Y0636333D01*
X0558845Y0636333D02*
X0558845Y0641533D01*
X0568845Y0641533D02*
X0568845Y0636333D01*
X0578845Y0636333D02*
X0578845Y0641533D01*
X0588845Y0641533D02*
X0588845Y0636333D01*
X0588845Y0666333D02*
X0588845Y0671533D01*
X0578845Y0671533D02*
X0578845Y0666333D01*
X0451445Y0663933D02*
X0446245Y0663933D01*
X0446245Y0653933D02*
X0451445Y0653933D01*
X0451445Y0643933D02*
X0446245Y0643933D01*
X0446245Y0633933D02*
X0451445Y0633933D01*
X0451445Y0623933D02*
X0446245Y0623933D01*
X0446245Y0613933D02*
X0451445Y0613933D01*
X0451445Y0603933D02*
X0446245Y0603933D01*
X0446245Y0593933D02*
X0451445Y0593933D01*
X0451445Y0583933D02*
X0446245Y0583933D01*
X0426445Y0583933D02*
X0421245Y0583933D01*
X0421245Y0573933D02*
X0426445Y0573933D01*
X0426445Y0563933D02*
X0421245Y0563933D01*
X0396445Y0563933D02*
X0391245Y0563933D01*
X0391245Y0573933D02*
X0396445Y0573933D01*
X0396445Y0583933D02*
X0391245Y0583933D01*
X0391245Y0593933D02*
X0396445Y0593933D01*
X0396445Y0603933D02*
X0391245Y0603933D01*
X0391245Y0613933D02*
X0396445Y0613933D01*
X0396445Y0623933D02*
X0391245Y0623933D01*
X0391445Y0643933D02*
X0386245Y0643933D01*
X0386245Y0653933D02*
X0391445Y0653933D01*
X0391445Y0663933D02*
X0386245Y0663933D01*
X0386245Y0673933D02*
X0391445Y0673933D01*
X0391445Y0683933D02*
X0386245Y0683933D01*
X0386245Y0693933D02*
X0391445Y0693933D01*
X0391445Y0703933D02*
X0386245Y0703933D01*
X0386245Y0713933D02*
X0391445Y0713933D01*
X0416245Y0713933D02*
X0421445Y0713933D01*
X0421445Y0703933D02*
X0416245Y0703933D01*
X0416245Y0693933D02*
X0421445Y0693933D01*
X0421445Y0683933D02*
X0416245Y0683933D01*
X0416245Y0673933D02*
X0421445Y0673933D01*
X0421445Y0663933D02*
X0416245Y0663933D01*
X0416245Y0653933D02*
X0421445Y0653933D01*
X0421445Y0643933D02*
X0416245Y0643933D01*
X0421245Y0623933D02*
X0426445Y0623933D01*
X0426445Y0613933D02*
X0421245Y0613933D01*
X0421245Y0603933D02*
X0426445Y0603933D01*
X0426445Y0593933D02*
X0421245Y0593933D01*
X0366445Y0643933D02*
X0361245Y0643933D01*
X0361245Y0653933D02*
X0366445Y0653933D01*
X0366445Y0663933D02*
X0361245Y0663933D01*
X0361245Y0673933D02*
X0366445Y0673933D01*
X0366445Y0683933D02*
X0361245Y0683933D01*
X0361245Y0693933D02*
X0366445Y0693933D01*
X0366445Y0703933D02*
X0361245Y0703933D01*
X0361245Y0713933D02*
X0366445Y0713933D01*
X0358845Y0756333D02*
X0358845Y0761533D01*
X0348845Y0761533D02*
X0348845Y0756333D01*
X0338845Y0756333D02*
X0338845Y0761533D01*
X0306445Y0708933D02*
X0301245Y0708933D01*
X0301245Y0698933D02*
X0306445Y0698933D01*
X0306445Y0688933D02*
X0301245Y0688933D01*
X0301245Y0678933D02*
X0306445Y0678933D01*
X0306445Y0668933D02*
X0301245Y0668933D01*
X0301245Y0658933D02*
X0306445Y0658933D01*
X0306445Y0648933D02*
X0301245Y0648933D01*
X0321245Y0548933D02*
X0326445Y0548933D01*
X0326445Y0538933D02*
X0321245Y0538933D01*
X0321245Y0528933D02*
X0326445Y0528933D01*
X0321445Y0413933D02*
X0316245Y0413933D01*
X0316245Y0403933D02*
X0321445Y0403933D01*
X0321445Y0393933D02*
X0316245Y0393933D01*
X0316245Y0383933D02*
X0321445Y0383933D01*
X0321445Y0373933D02*
X0316245Y0373933D01*
X0316245Y0363933D02*
X0321445Y0363933D01*
X0321445Y0353933D02*
X0316245Y0353933D01*
X0346245Y0353933D02*
X0351445Y0353933D01*
X0351445Y0363933D02*
X0346245Y0363933D01*
X0346245Y0373933D02*
X0351445Y0373933D01*
X0351445Y0383933D02*
X0346245Y0383933D01*
X0346245Y0393933D02*
X0351445Y0393933D01*
X0351445Y0403933D02*
X0346245Y0403933D01*
X0346245Y0413933D02*
X0351445Y0413933D01*
X0381245Y0413933D02*
X0386445Y0413933D01*
X0386445Y0403933D02*
X0381245Y0403933D01*
X0381245Y0393933D02*
X0386445Y0393933D01*
X0386445Y0383933D02*
X0381245Y0383933D01*
X0381245Y0373933D02*
X0386445Y0373933D01*
X0386445Y0363933D02*
X0381245Y0363933D01*
X0381245Y0353933D02*
X0386445Y0353933D01*
X0411245Y0353933D02*
X0416445Y0353933D01*
X0416445Y0363933D02*
X0411245Y0363933D01*
X0411245Y0373933D02*
X0416445Y0373933D01*
X0416445Y0383933D02*
X0411245Y0383933D01*
X0411245Y0393933D02*
X0416445Y0393933D01*
X0416445Y0403933D02*
X0411245Y0403933D01*
X0411245Y0413933D02*
X0416445Y0413933D01*
X0436245Y0413933D02*
X0441445Y0413933D01*
X0441445Y0403933D02*
X0436245Y0403933D01*
X0436245Y0393933D02*
X0441445Y0393933D01*
X0441445Y0383933D02*
X0436245Y0383933D01*
X0436245Y0373933D02*
X0441445Y0373933D01*
X0441445Y0363933D02*
X0436245Y0363933D01*
X0436245Y0353933D02*
X0441445Y0353933D01*
X0466245Y0353933D02*
X0471445Y0353933D01*
X0471445Y0363933D02*
X0466245Y0363933D01*
X0466245Y0373933D02*
X0471445Y0373933D01*
X0471445Y0383933D02*
X0466245Y0383933D01*
X0466245Y0393933D02*
X0471445Y0393933D01*
X0471445Y0403933D02*
X0466245Y0403933D01*
X0466245Y0413933D02*
X0471445Y0413933D01*
X0501245Y0413933D02*
X0506445Y0413933D01*
X0506445Y0403933D02*
X0501245Y0403933D01*
X0501245Y0393933D02*
X0506445Y0393933D01*
X0506445Y0383933D02*
X0501245Y0383933D01*
X0501245Y0373933D02*
X0506445Y0373933D01*
X0506445Y0363933D02*
X0501245Y0363933D01*
X0501245Y0353933D02*
X0506445Y0353933D01*
X0531245Y0353933D02*
X0536445Y0353933D01*
X0536445Y0363933D02*
X0531245Y0363933D01*
X0531245Y0373933D02*
X0536445Y0373933D01*
X0536445Y0383933D02*
X0531245Y0383933D01*
X0531245Y0393933D02*
X0536445Y0393933D01*
X0536445Y0403933D02*
X0531245Y0403933D01*
X0531245Y0413933D02*
X0536445Y0413933D01*
X0551245Y0413933D02*
X0556445Y0413933D01*
X0556445Y0403933D02*
X0551245Y0403933D01*
X0551245Y0393933D02*
X0556445Y0393933D01*
X0556445Y0383933D02*
X0551245Y0383933D01*
X0551245Y0373933D02*
X0556445Y0373933D01*
X0556445Y0363933D02*
X0551245Y0363933D01*
X0551245Y0353933D02*
X0556445Y0353933D01*
X0581245Y0353933D02*
X0586445Y0353933D01*
X0586445Y0363933D02*
X0581245Y0363933D01*
X0581245Y0373933D02*
X0586445Y0373933D01*
X0586445Y0383933D02*
X0581245Y0383933D01*
X0581245Y0393933D02*
X0586445Y0393933D01*
X0586445Y0403933D02*
X0581245Y0403933D01*
X0581245Y0413933D02*
X0586445Y0413933D01*
X0531445Y0323933D02*
X0526245Y0323933D01*
X0501445Y0323933D02*
X0496245Y0323933D01*
X0476445Y0323933D02*
X0471245Y0323933D01*
X0446445Y0323933D02*
X0441245Y0323933D01*
X0426445Y0323933D02*
X0421245Y0323933D01*
X0396445Y0323933D02*
X0391245Y0323933D01*
X0376445Y0323933D02*
X0371245Y0323933D01*
X0346445Y0323933D02*
X0341245Y0323933D01*
X0326445Y0323933D02*
X0321245Y0323933D01*
X0446245Y0673933D02*
X0451445Y0673933D01*
X0451445Y0683933D02*
X0446245Y0683933D01*
X0446245Y0693933D02*
X0451445Y0693933D01*
X0451445Y0703933D02*
X0446245Y0703933D01*
X0446245Y0713933D02*
X0451445Y0713933D01*
D14*
X0077145Y0738933D02*
X0070545Y0738933D01*
X0070545Y0748933D02*
X0077145Y0748933D01*
X0077145Y0758933D02*
X0070545Y0758933D01*
D15*
X0142845Y0748933D03*
D16*
X0188845Y0758933D03*
X0198845Y0758933D03*
X0198845Y0768933D03*
X0188845Y0788933D03*
X0233845Y0788933D03*
X0238845Y0768933D03*
X0238845Y0758933D03*
X0263845Y0788933D03*
X0283845Y0798933D03*
X0313845Y0798933D03*
X0323845Y0773933D03*
X0353845Y0773933D03*
X0338845Y0743933D03*
X0338845Y0733933D03*
X0313845Y0723933D03*
X0303845Y0723933D03*
X0368845Y0743933D03*
X0378845Y0733933D03*
X0383845Y0753933D03*
X0393845Y0763933D03*
X0403845Y0753933D03*
X0418845Y0753933D03*
X0428845Y0763933D03*
X0438845Y0753933D03*
X0448845Y0728933D03*
X0458845Y0728933D03*
X0478845Y0733933D03*
X0473845Y0748933D03*
X0483845Y0768933D03*
X0473845Y0778933D03*
X0493845Y0768933D03*
X0508845Y0768933D03*
X0518845Y0768933D03*
X0528845Y0763933D03*
X0508845Y0733933D03*
X0558845Y0763933D03*
X0568845Y0763933D03*
X0598845Y0763933D03*
X0603845Y0753933D03*
X0603845Y0743933D03*
X0603845Y0728933D03*
X0603845Y0718933D03*
X0523845Y0623933D03*
X0523845Y0613933D03*
X0468845Y0538933D03*
X0488845Y0531433D03*
X0498845Y0531433D03*
X0538845Y0531433D03*
X0548845Y0531433D03*
X0563845Y0443933D03*
X0573845Y0423933D03*
X0583845Y0423933D03*
X0593845Y0443933D03*
X0603845Y0428933D03*
X0603845Y0418933D03*
X0598845Y0383933D03*
X0598845Y0353933D03*
X0538845Y0333933D03*
X0528845Y0333933D03*
X0506345Y0333933D03*
X0496345Y0333933D03*
X0483845Y0323933D03*
X0483845Y0353933D03*
X0383845Y0426433D03*
X0373845Y0426433D03*
X0368845Y0373933D03*
X0368845Y0343933D03*
X0283845Y0448933D03*
X0303845Y0473933D03*
X0303845Y0503933D03*
X0326345Y0558933D03*
X0336345Y0558933D03*
X0343845Y0623933D03*
X0373845Y0623933D03*
X0438845Y0538933D03*
X0268845Y0608933D03*
X0268845Y0628933D03*
X0228845Y0638933D03*
X0228845Y0658933D03*
X0198845Y0658933D03*
X0198845Y0638933D03*
X0173845Y0608933D03*
X0173845Y0598933D03*
X0173845Y0588933D03*
X0158845Y0578933D03*
X0143845Y0588933D03*
X0143845Y0598933D03*
X0143845Y0608933D03*
X0118845Y0553933D03*
X0131345Y0533933D03*
X0131345Y0503933D03*
X0131345Y0483933D03*
X0118845Y0463933D03*
X0131345Y0453933D03*
X0118845Y0446433D03*
X0103845Y0448933D03*
X0093845Y0448933D03*
X0088845Y0463933D03*
X0083845Y0423933D03*
X0093845Y0423933D03*
X0103845Y0423933D03*
X0133845Y0423933D03*
X0143845Y0423933D03*
X0153845Y0423933D03*
X0163845Y0433933D03*
X0148845Y0446433D03*
X0163845Y0453933D03*
X0193845Y0453933D03*
X0193845Y0483933D03*
X0198845Y0538933D03*
X0198845Y0548933D03*
X0183845Y0553933D03*
X0173845Y0553933D03*
X0188845Y0578933D03*
X0198845Y0578933D03*
X0198845Y0566433D03*
X0198845Y0598933D03*
X0228845Y0598933D03*
X0228845Y0578933D03*
X0228845Y0566433D03*
X0228845Y0548933D03*
X0228845Y0538933D03*
X0253845Y0448933D03*
X0238845Y0408933D03*
X0238845Y0378933D03*
X0088845Y0553933D03*
X0073845Y0543933D03*
X0061345Y0543933D03*
X0061345Y0513933D03*
X0073845Y0513933D03*
X0158845Y0688933D03*
X0188845Y0688933D03*
X0393845Y0808933D03*
X0393845Y0818933D03*
X0423845Y0818933D03*
X0423845Y0808933D03*
D17*
X0273845Y0788933D03*
X0273845Y0758933D03*
X0328845Y0603933D03*
X0083845Y0778933D03*
X0073845Y0723933D03*
D18*
X0083845Y0723933D03*
X0073845Y0778933D03*
X0318845Y0603933D03*
D19*
X0486645Y0783833D03*
X0484545Y0810833D03*
X0503045Y0831133D03*
X0539545Y0810833D03*
X0558045Y0831133D03*
X0541645Y0783833D03*
X0596645Y0783833D03*
X0594545Y0810833D03*
X0613045Y0831133D03*
D20*
X0620745Y0800733D03*
X0630645Y0797733D03*
X0575645Y0797733D03*
X0565745Y0800733D03*
X0520645Y0797733D03*
X0510745Y0800733D03*
D21*
X0360499Y0793933D03*
X0346345Y0809366D03*
X0332192Y0793933D03*
D22*
X0288845Y0821433D03*
X0278845Y0821433D03*
X0268845Y0821433D03*
X0258845Y0821433D03*
X0248845Y0821433D03*
X0238845Y0821433D03*
X0228845Y0821433D03*
X0218845Y0821433D03*
X0208845Y0821433D03*
X0198845Y0821433D03*
X0188845Y0821433D03*
X0178845Y0821433D03*
X0168845Y0821433D03*
X0158845Y0821433D03*
X0148845Y0821433D03*
X0138845Y0821433D03*
X0128845Y0821433D03*
X0118845Y0821433D03*
X0108845Y0821433D03*
X0098845Y0821433D03*
X0078845Y0821433D03*
X0068845Y0821433D03*
D23*
X0166045Y0648933D02*
X0171645Y0648933D01*
X0171645Y0638933D02*
X0166045Y0638933D01*
X0166045Y0628933D02*
X0171645Y0628933D01*
X0251045Y0488933D02*
X0256645Y0488933D01*
X0256645Y0478933D02*
X0251045Y0478933D01*
X0251045Y0468933D02*
X0256645Y0468933D01*
X0076645Y0458933D02*
X0071045Y0458933D01*
X0071045Y0448933D02*
X0076645Y0448933D01*
X0076645Y0438933D02*
X0071045Y0438933D01*
X0288845Y0781133D02*
X0288845Y0786733D01*
X0298845Y0786733D02*
X0298845Y0781133D01*
X0308845Y0781133D02*
X0308845Y0786733D01*
X0376045Y0808933D02*
X0381645Y0808933D01*
X0381645Y0818933D02*
X0376045Y0818933D01*
X0491345Y0750483D02*
X0491345Y0744883D01*
X0501345Y0744883D02*
X0501345Y0750483D01*
X0511345Y0750483D02*
X0511345Y0744883D01*
X0526045Y0703933D02*
X0531645Y0703933D01*
X0531645Y0693933D02*
X0526045Y0693933D01*
X0526045Y0683933D02*
X0531645Y0683933D01*
X0503845Y0561733D02*
X0503845Y0556133D01*
X0493845Y0556133D02*
X0493845Y0561733D01*
X0483845Y0561733D02*
X0483845Y0556133D01*
D24*
X0061345Y0718933D03*
X0061345Y0758933D03*
D25*
X0484948Y0801433D03*
X0503845Y0789622D03*
X0503845Y0813244D03*
D26*
X0464645Y0800333D02*
X0458645Y0800333D01*
X0458645Y0782533D02*
X0464645Y0782533D01*
X0439045Y0782533D02*
X0433045Y0782533D01*
X0433045Y0800333D02*
X0439045Y0800333D01*
D27*
X0564345Y0333933D03*
X0573739Y0333933D03*
X0583345Y0333933D03*
D28*
X0546988Y0258291D03*
X0525703Y0224576D03*
X0516988Y0203291D03*
X0495703Y0169576D03*
X0476988Y0147041D03*
X0455703Y0113326D03*
X0446988Y0090791D03*
X0425703Y0057076D03*
X0391988Y0090791D03*
X0400703Y0113326D03*
X0421988Y0147041D03*
X0440703Y0169576D03*
X0461988Y0203291D03*
X0470703Y0224576D03*
X0491988Y0258291D03*
X0436988Y0258291D03*
X0415703Y0224576D03*
X0406988Y0203291D03*
X0385703Y0169576D03*
X0366988Y0147041D03*
X0345703Y0113326D03*
X0336988Y0090791D03*
X0315703Y0057076D03*
X0281988Y0090791D03*
X0290703Y0113326D03*
X0311988Y0147041D03*
X0330703Y0169576D03*
X0351988Y0203291D03*
X0360703Y0224576D03*
X0381988Y0258291D03*
X0326988Y0258291D03*
X0305703Y0224576D03*
X0296988Y0203291D03*
X0275703Y0169576D03*
X0256988Y0147041D03*
X0235703Y0113326D03*
X0226988Y0090791D03*
X0205703Y0057076D03*
X0171988Y0090791D03*
X0180703Y0113326D03*
X0201988Y0147041D03*
X0220703Y0169576D03*
X0241988Y0203291D03*
X0250703Y0224576D03*
X0271988Y0258291D03*
X0216988Y0258291D03*
X0195703Y0224576D03*
X0186988Y0203291D03*
X0165703Y0169576D03*
X0146988Y0147041D03*
X0120703Y0112076D03*
X0116988Y0090791D03*
X0095703Y0057076D03*
X0061988Y0090791D03*
X0086988Y0145791D03*
X0110703Y0169576D03*
X0131988Y0203291D03*
X0139453Y0224576D03*
X0161988Y0258291D03*
X0105738Y0258291D03*
X0085703Y0224576D03*
X0076988Y0203291D03*
X0051988Y0258291D03*
X0150703Y0057076D03*
X0260703Y0057076D03*
X0370703Y0057076D03*
X0480703Y0057076D03*
X0501988Y0090791D03*
X0510703Y0113326D03*
X0531988Y0147041D03*
X0550703Y0169576D03*
X0571988Y0203291D03*
X0580703Y0224576D03*
X0605703Y0169576D03*
X0586988Y0145791D03*
X0565703Y0113326D03*
X0556988Y0090791D03*
X0535703Y0057076D03*
X0590703Y0057076D03*
X0620703Y0112076D03*
D29*
X0603845Y0128933D03*
X0573845Y0073933D03*
X0548845Y0130183D03*
X0533845Y0186433D03*
X0493845Y0130183D03*
X0478845Y0186433D03*
X0438845Y0130183D03*
X0423845Y0186433D03*
X0383845Y0130183D03*
X0368845Y0186433D03*
X0328845Y0130183D03*
X0313845Y0186433D03*
X0273845Y0130183D03*
X0258845Y0186433D03*
X0218845Y0130183D03*
X0203845Y0186433D03*
X0163845Y0130183D03*
X0148845Y0186433D03*
X0122595Y0241433D03*
X0093845Y0186433D03*
X0103845Y0128933D03*
X0078845Y0073933D03*
X0133845Y0073933D03*
X0188845Y0073933D03*
X0243845Y0073933D03*
X0298845Y0073933D03*
X0353845Y0073933D03*
X0408845Y0073933D03*
X0463845Y0073933D03*
X0518845Y0073933D03*
X0588845Y0186433D03*
X0563845Y0241433D03*
X0508845Y0241433D03*
X0453845Y0241433D03*
X0398845Y0241433D03*
X0343845Y0241433D03*
X0288845Y0241433D03*
X0233845Y0241433D03*
X0178845Y0241433D03*
X0068845Y0241433D03*
D30*
X0053845Y0228933D02*
X0056345Y0226433D01*
X0053845Y0253933D02*
X0056345Y0256433D01*
X0081345Y0256433D02*
X0083845Y0253933D01*
X0107595Y0253933D02*
X0110095Y0256433D01*
X0107595Y0228933D02*
X0110095Y0226433D01*
X0106345Y0201433D02*
X0108845Y0198933D01*
X0108845Y0173933D02*
X0106345Y0171433D01*
X0081345Y0171433D02*
X0078845Y0173933D01*
X0078845Y0198933D02*
X0081345Y0201433D01*
X0081345Y0226433D02*
X0083845Y0228933D01*
X0133845Y0198933D02*
X0136345Y0201433D01*
X0161345Y0201433D02*
X0163845Y0198933D01*
X0163845Y0173933D02*
X0161345Y0171433D01*
X0136345Y0171433D02*
X0133845Y0173933D01*
X0151345Y0145183D02*
X0148845Y0142683D01*
X0148845Y0117683D02*
X0151345Y0115183D01*
X0146345Y0088933D02*
X0148845Y0086433D01*
X0148845Y0061433D02*
X0146345Y0058933D01*
X0121345Y0058933D02*
X0118845Y0061433D01*
X0118845Y0086433D02*
X0121345Y0088933D01*
X0116345Y0113933D02*
X0118845Y0116433D01*
X0118845Y0141433D02*
X0116345Y0143933D01*
X0091345Y0143933D02*
X0088845Y0141433D01*
X0088845Y0116433D02*
X0091345Y0113933D01*
X0091345Y0088933D02*
X0093845Y0086433D01*
X0093845Y0061433D02*
X0091345Y0058933D01*
X0066345Y0058933D02*
X0063845Y0061433D01*
X0063845Y0086433D02*
X0066345Y0088933D01*
X0173845Y0086433D02*
X0176345Y0088933D01*
X0201345Y0088933D02*
X0203845Y0086433D01*
X0203845Y0061433D02*
X0201345Y0058933D01*
X0176345Y0058933D02*
X0173845Y0061433D01*
X0176345Y0115183D02*
X0178845Y0117683D01*
X0178845Y0142683D02*
X0176345Y0145183D01*
X0191345Y0171433D02*
X0188845Y0173933D01*
X0188845Y0198933D02*
X0191345Y0201433D01*
X0191345Y0226433D02*
X0193845Y0228933D01*
X0193845Y0253933D02*
X0191345Y0256433D01*
X0166345Y0256433D02*
X0163845Y0253933D01*
X0163845Y0228933D02*
X0166345Y0226433D01*
X0137595Y0228933D02*
X0135095Y0226433D01*
X0137595Y0253933D02*
X0135095Y0256433D01*
X0218845Y0253933D02*
X0221345Y0256433D01*
X0218845Y0228933D02*
X0221345Y0226433D01*
X0216345Y0201433D02*
X0218845Y0198933D01*
X0218845Y0173933D02*
X0216345Y0171433D01*
X0206345Y0145183D02*
X0203845Y0142683D01*
X0203845Y0117683D02*
X0206345Y0115183D01*
X0231345Y0115183D02*
X0233845Y0117683D01*
X0233845Y0142683D02*
X0231345Y0145183D01*
X0246345Y0171433D02*
X0243845Y0173933D01*
X0243845Y0198933D02*
X0246345Y0201433D01*
X0246345Y0226433D02*
X0248845Y0228933D01*
X0248845Y0253933D02*
X0246345Y0256433D01*
X0273845Y0253933D02*
X0276345Y0256433D01*
X0301345Y0256433D02*
X0303845Y0253933D01*
X0303845Y0228933D02*
X0301345Y0226433D01*
X0276345Y0226433D02*
X0273845Y0228933D01*
X0271345Y0201433D02*
X0273845Y0198933D01*
X0273845Y0173933D02*
X0271345Y0171433D01*
X0261345Y0145183D02*
X0258845Y0142683D01*
X0258845Y0117683D02*
X0261345Y0115183D01*
X0256345Y0088933D02*
X0258845Y0086433D01*
X0258845Y0061433D02*
X0256345Y0058933D01*
X0231345Y0058933D02*
X0228845Y0061433D01*
X0228845Y0086433D02*
X0231345Y0088933D01*
X0283845Y0086433D02*
X0286345Y0088933D01*
X0286345Y0115183D02*
X0288845Y0117683D01*
X0288845Y0142683D02*
X0286345Y0145183D01*
X0301345Y0171433D02*
X0298845Y0173933D01*
X0298845Y0198933D02*
X0301345Y0201433D01*
X0326345Y0201433D02*
X0328845Y0198933D01*
X0328845Y0173933D02*
X0326345Y0171433D01*
X0316345Y0145183D02*
X0313845Y0142683D01*
X0313845Y0117683D02*
X0316345Y0115183D01*
X0341345Y0115183D02*
X0343845Y0117683D01*
X0343845Y0142683D02*
X0341345Y0145183D01*
X0356345Y0171433D02*
X0353845Y0173933D01*
X0353845Y0198933D02*
X0356345Y0201433D01*
X0356345Y0226433D02*
X0358845Y0228933D01*
X0358845Y0253933D02*
X0356345Y0256433D01*
X0331345Y0256433D02*
X0328845Y0253933D01*
X0328845Y0228933D02*
X0331345Y0226433D01*
X0381345Y0201433D02*
X0383845Y0198933D01*
X0383845Y0173933D02*
X0381345Y0171433D01*
X0371345Y0145183D02*
X0368845Y0142683D01*
X0368845Y0117683D02*
X0371345Y0115183D01*
X0396345Y0115183D02*
X0398845Y0117683D01*
X0398845Y0142683D02*
X0396345Y0145183D01*
X0411345Y0171433D02*
X0408845Y0173933D01*
X0408845Y0198933D02*
X0411345Y0201433D01*
X0411345Y0226433D02*
X0413845Y0228933D01*
X0413845Y0253933D02*
X0411345Y0256433D01*
X0386345Y0256433D02*
X0383845Y0253933D01*
X0383845Y0228933D02*
X0386345Y0226433D01*
X0436345Y0201433D02*
X0438845Y0198933D01*
X0438845Y0173933D02*
X0436345Y0171433D01*
X0426345Y0145183D02*
X0423845Y0142683D01*
X0423845Y0117683D02*
X0426345Y0115183D01*
X0421345Y0088933D02*
X0423845Y0086433D01*
X0423845Y0061433D02*
X0421345Y0058933D01*
X0396345Y0058933D02*
X0393845Y0061433D01*
X0393845Y0086433D02*
X0396345Y0088933D01*
X0368845Y0086433D02*
X0366345Y0088933D01*
X0368845Y0061433D02*
X0366345Y0058933D01*
X0341345Y0058933D02*
X0338845Y0061433D01*
X0338845Y0086433D02*
X0341345Y0088933D01*
X0313845Y0086433D02*
X0311345Y0088933D01*
X0313845Y0061433D02*
X0311345Y0058933D01*
X0286345Y0058933D02*
X0283845Y0061433D01*
X0441345Y0226433D02*
X0438845Y0228933D01*
X0438845Y0253933D02*
X0441345Y0256433D01*
X0466345Y0256433D02*
X0468845Y0253933D01*
X0468845Y0228933D02*
X0466345Y0226433D01*
X0466345Y0201433D02*
X0463845Y0198933D01*
X0463845Y0173933D02*
X0466345Y0171433D01*
X0451345Y0145183D02*
X0453845Y0142683D01*
X0453845Y0117683D02*
X0451345Y0115183D01*
X0451345Y0088933D02*
X0448845Y0086433D01*
X0448845Y0061433D02*
X0451345Y0058933D01*
X0476345Y0058933D02*
X0478845Y0061433D01*
X0478845Y0086433D02*
X0476345Y0088933D01*
X0481345Y0115183D02*
X0478845Y0117683D01*
X0478845Y0142683D02*
X0481345Y0145183D01*
X0491345Y0171433D02*
X0493845Y0173933D01*
X0493845Y0198933D02*
X0491345Y0201433D01*
X0496345Y0226433D02*
X0493845Y0228933D01*
X0493845Y0253933D02*
X0496345Y0256433D01*
X0521345Y0256433D02*
X0523845Y0253933D01*
X0523845Y0228933D02*
X0521345Y0226433D01*
X0521345Y0201433D02*
X0518845Y0198933D01*
X0518845Y0173933D02*
X0521345Y0171433D01*
X0506345Y0145183D02*
X0508845Y0142683D01*
X0508845Y0117683D02*
X0506345Y0115183D01*
X0506345Y0088933D02*
X0503845Y0086433D01*
X0503845Y0061433D02*
X0506345Y0058933D01*
X0531345Y0058933D02*
X0533845Y0061433D01*
X0533845Y0086433D02*
X0531345Y0088933D01*
X0536345Y0115183D02*
X0533845Y0117683D01*
X0533845Y0142683D02*
X0536345Y0145183D01*
X0546345Y0171433D02*
X0548845Y0173933D01*
X0548845Y0198933D02*
X0546345Y0201433D01*
X0551345Y0226433D02*
X0548845Y0228933D01*
X0548845Y0253933D02*
X0551345Y0256433D01*
X0576345Y0256433D02*
X0578845Y0253933D01*
X0578845Y0228933D02*
X0576345Y0226433D01*
X0576345Y0201433D02*
X0573845Y0198933D01*
X0573845Y0173933D02*
X0576345Y0171433D01*
X0561345Y0145183D02*
X0563845Y0142683D01*
X0563845Y0117683D02*
X0561345Y0115183D01*
X0561345Y0088933D02*
X0558845Y0086433D01*
X0558845Y0061433D02*
X0561345Y0058933D01*
X0586345Y0058933D02*
X0588845Y0061433D01*
X0588845Y0086433D02*
X0586345Y0088933D01*
X0591345Y0113933D02*
X0588845Y0116433D01*
X0588845Y0141433D02*
X0591345Y0143933D01*
X0601345Y0171433D02*
X0603845Y0173933D01*
X0603845Y0198933D02*
X0601345Y0201433D01*
X0616345Y0143933D02*
X0618845Y0141433D01*
X0618845Y0116433D02*
X0616345Y0113933D01*
D31*
X0615095Y0112683D02*
X0592595Y0112683D01*
X0587595Y0117683D02*
X0587595Y0140183D01*
X0577595Y0170183D02*
X0600095Y0170183D01*
X0605095Y0173933D02*
X0605095Y0196433D01*
X0572595Y0197683D02*
X0572595Y0175183D01*
X0550095Y0173933D02*
X0550095Y0196433D01*
X0545095Y0170183D02*
X0522595Y0170183D01*
X0517595Y0175183D02*
X0517595Y0197683D01*
X0495095Y0196433D02*
X0495095Y0173933D01*
X0490095Y0170183D02*
X0467595Y0170183D01*
X0462595Y0175183D02*
X0462595Y0197683D01*
X0440095Y0196433D02*
X0440095Y0173933D01*
X0435095Y0170183D02*
X0412595Y0170183D01*
X0407595Y0175183D02*
X0407595Y0197683D01*
X0385095Y0196433D02*
X0385095Y0173933D01*
X0380095Y0170183D02*
X0357595Y0170183D01*
X0352595Y0175183D02*
X0352595Y0197683D01*
X0330095Y0196433D02*
X0330095Y0173933D01*
X0325095Y0170183D02*
X0302595Y0170183D01*
X0297595Y0175183D02*
X0297595Y0197683D01*
X0275095Y0196433D02*
X0275095Y0173933D01*
X0270095Y0170183D02*
X0247595Y0170183D01*
X0242595Y0175183D02*
X0242595Y0197683D01*
X0220095Y0196433D02*
X0220095Y0173933D01*
X0215095Y0170183D02*
X0192595Y0170183D01*
X0187595Y0175183D02*
X0187595Y0197683D01*
X0165095Y0196433D02*
X0165095Y0173933D01*
X0160095Y0170183D02*
X0137595Y0170183D01*
X0132595Y0175183D02*
X0132595Y0197683D01*
X0110095Y0196433D02*
X0110095Y0173933D01*
X0105095Y0170183D02*
X0082595Y0170183D01*
X0077595Y0175183D02*
X0077595Y0197683D01*
X0080095Y0225183D02*
X0057595Y0225183D01*
X0052595Y0230183D02*
X0052595Y0252683D01*
X0085095Y0251433D02*
X0085095Y0228933D01*
X0106345Y0230183D02*
X0106345Y0252683D01*
X0111345Y0225183D02*
X0133845Y0225183D01*
X0138845Y0228933D02*
X0138845Y0251433D01*
X0162595Y0252683D02*
X0162595Y0230183D01*
X0167595Y0225183D02*
X0190095Y0225183D01*
X0195095Y0228933D02*
X0195095Y0251433D01*
X0217595Y0252683D02*
X0217595Y0230183D01*
X0222595Y0225183D02*
X0245095Y0225183D01*
X0250095Y0228933D02*
X0250095Y0251433D01*
X0272595Y0252683D02*
X0272595Y0230183D01*
X0277595Y0225183D02*
X0300095Y0225183D01*
X0305095Y0228933D02*
X0305095Y0251433D01*
X0327595Y0252683D02*
X0327595Y0230183D01*
X0332595Y0225183D02*
X0355095Y0225183D01*
X0360095Y0228933D02*
X0360095Y0251433D01*
X0382595Y0252683D02*
X0382595Y0230183D01*
X0387595Y0225183D02*
X0410095Y0225183D01*
X0415095Y0228933D02*
X0415095Y0251433D01*
X0437595Y0252683D02*
X0437595Y0230183D01*
X0442595Y0225183D02*
X0465095Y0225183D01*
X0470095Y0228933D02*
X0470095Y0251433D01*
X0492595Y0252683D02*
X0492595Y0230183D01*
X0497595Y0225183D02*
X0520095Y0225183D01*
X0525095Y0228933D02*
X0525095Y0251433D01*
X0547595Y0252683D02*
X0547595Y0230183D01*
X0552595Y0225183D02*
X0575095Y0225183D01*
X0580095Y0228933D02*
X0580095Y0251433D01*
X0565095Y0140183D02*
X0565095Y0117683D01*
X0560095Y0113933D02*
X0537595Y0113933D01*
X0532595Y0118933D02*
X0532595Y0141433D01*
X0510095Y0140183D02*
X0510095Y0117683D01*
X0505095Y0113933D02*
X0482595Y0113933D01*
X0477595Y0118933D02*
X0477595Y0141433D01*
X0455095Y0140183D02*
X0455095Y0117683D01*
X0450095Y0113933D02*
X0427595Y0113933D01*
X0422595Y0118933D02*
X0422595Y0141433D01*
X0400095Y0140183D02*
X0400095Y0117683D01*
X0395095Y0113933D02*
X0372595Y0113933D01*
X0367595Y0118933D02*
X0367595Y0141433D01*
X0345095Y0140183D02*
X0345095Y0117683D01*
X0340095Y0113933D02*
X0317595Y0113933D01*
X0312595Y0118933D02*
X0312595Y0141433D01*
X0290095Y0140183D02*
X0290095Y0117683D01*
X0285095Y0113933D02*
X0262595Y0113933D01*
X0257595Y0118933D02*
X0257595Y0141433D01*
X0235095Y0140183D02*
X0235095Y0117683D01*
X0230095Y0113933D02*
X0207595Y0113933D01*
X0202595Y0118933D02*
X0202595Y0141433D01*
X0180095Y0140183D02*
X0180095Y0117683D01*
X0175095Y0113933D02*
X0152595Y0113933D01*
X0147595Y0118933D02*
X0147595Y0141433D01*
X0120095Y0138933D02*
X0120095Y0116433D01*
X0115095Y0112683D02*
X0092595Y0112683D01*
X0087595Y0117683D02*
X0087595Y0140183D01*
X0095095Y0083933D02*
X0095095Y0061433D01*
X0090095Y0057683D02*
X0067595Y0057683D01*
X0062595Y0062683D02*
X0062595Y0085183D01*
X0117595Y0085183D02*
X0117595Y0062683D01*
X0122595Y0057683D02*
X0145095Y0057683D01*
X0150095Y0061433D02*
X0150095Y0083933D01*
X0172595Y0085183D02*
X0172595Y0062683D01*
X0177595Y0057683D02*
X0200095Y0057683D01*
X0205095Y0061433D02*
X0205095Y0083933D01*
X0227595Y0085183D02*
X0227595Y0062683D01*
X0232595Y0057683D02*
X0255095Y0057683D01*
X0260095Y0061433D02*
X0260095Y0083933D01*
X0282595Y0085183D02*
X0282595Y0062683D01*
X0287595Y0057683D02*
X0310095Y0057683D01*
X0315095Y0061433D02*
X0315095Y0083933D01*
X0337595Y0085183D02*
X0337595Y0062683D01*
X0342595Y0057683D02*
X0365095Y0057683D01*
X0370095Y0061433D02*
X0370095Y0083933D01*
X0392595Y0085183D02*
X0392595Y0062683D01*
X0397595Y0057683D02*
X0420095Y0057683D01*
X0425095Y0061433D02*
X0425095Y0083933D01*
X0447595Y0085183D02*
X0447595Y0062683D01*
X0452595Y0057683D02*
X0475095Y0057683D01*
X0480095Y0061433D02*
X0480095Y0083933D01*
X0502595Y0085183D02*
X0502595Y0062683D01*
X0507595Y0057683D02*
X0530095Y0057683D01*
X0535095Y0061433D02*
X0535095Y0083933D01*
X0557595Y0085183D02*
X0557595Y0062683D01*
X0562595Y0057683D02*
X0585095Y0057683D01*
X0590095Y0061433D02*
X0590095Y0083933D01*
X0620095Y0116433D02*
X0620095Y0138933D01*
D32*
X0606345Y0326433D03*
X0603845Y0363933D03*
X0623845Y0442683D03*
X0628845Y0483933D03*
X0598845Y0493933D03*
X0595095Y0483933D03*
X0593845Y0523933D03*
X0588845Y0543933D03*
X0566345Y0536433D03*
X0542595Y0553933D03*
X0542595Y0573933D03*
X0540095Y0578933D03*
X0537595Y0583933D03*
X0503845Y0573933D03*
X0477595Y0613933D03*
X0492595Y0633933D03*
X0490095Y0657683D03*
X0476345Y0663933D03*
X0478845Y0688933D03*
X0490095Y0716433D03*
X0498845Y0718933D03*
X0543845Y0755183D03*
X0553845Y0703933D03*
X0596345Y0678933D03*
X0607595Y0658933D03*
X0612595Y0673933D03*
X0598845Y0708933D03*
X0610095Y0588933D03*
X0587595Y0573933D03*
X0541345Y0508933D03*
X0511345Y0513933D03*
X0492595Y0498933D03*
X0481345Y0465183D03*
X0486345Y0435183D03*
X0461345Y0435183D03*
X0445095Y0430183D03*
X0436345Y0425183D03*
X0417595Y0442683D03*
X0426345Y0452683D03*
X0442595Y0468933D03*
X0442595Y0483933D03*
X0441345Y0508933D03*
X0441345Y0516433D03*
X0451345Y0523933D03*
X0446345Y0533933D03*
X0458845Y0538933D03*
X0466345Y0528933D03*
X0443845Y0553933D03*
X0418845Y0526433D03*
X0418845Y0518933D03*
X0398845Y0540183D03*
X0403845Y0548933D03*
X0393845Y0557683D03*
X0390095Y0536433D03*
X0361345Y0556433D03*
X0352595Y0583933D03*
X0351345Y0593933D03*
X0350095Y0598933D03*
X0345095Y0608933D03*
X0341345Y0616433D03*
X0328845Y0623933D03*
X0328845Y0633933D03*
X0343845Y0658933D03*
X0352595Y0665183D03*
X0352595Y0648933D03*
X0356345Y0640183D03*
X0358845Y0623933D03*
X0363845Y0603933D03*
X0373845Y0583933D03*
X0341345Y0578933D03*
X0331345Y0568933D03*
X0318845Y0573933D03*
X0287595Y0563933D03*
X0282595Y0578933D03*
X0272595Y0598933D03*
X0255095Y0568933D03*
X0267595Y0563933D03*
X0257595Y0553933D03*
X0267595Y0538933D03*
X0273845Y0528933D03*
X0265095Y0518933D03*
X0253845Y0503933D03*
X0267595Y0493933D03*
X0288845Y0498933D03*
X0293845Y0483933D03*
X0291345Y0466433D03*
X0261345Y0453933D03*
X0260095Y0435183D03*
X0238845Y0453933D03*
X0213845Y0481433D03*
X0206345Y0493933D03*
X0201345Y0498933D03*
X0205095Y0513933D03*
X0197595Y0518933D03*
X0191345Y0518933D03*
X0198845Y0528933D03*
X0215095Y0523933D03*
X0218845Y0503933D03*
X0171345Y0538933D03*
X0167595Y0533933D03*
X0168845Y0558933D03*
X0163845Y0566433D03*
X0150095Y0598933D03*
X0152595Y0608933D03*
X0176345Y0620183D03*
X0180095Y0628933D03*
X0186345Y0650183D03*
X0207595Y0638933D03*
X0203845Y0627683D03*
X0198845Y0616433D03*
X0190095Y0603933D03*
X0207595Y0598933D03*
X0218845Y0608933D03*
X0233845Y0627683D03*
X0220095Y0642683D03*
X0215095Y0658933D03*
X0222595Y0662683D03*
X0223845Y0683933D03*
X0232595Y0693933D03*
X0223845Y0703933D03*
X0221345Y0708933D03*
X0226345Y0718933D03*
X0227595Y0723933D03*
X0213845Y0728933D03*
X0188845Y0698933D03*
X0178845Y0683933D03*
X0161345Y0673933D03*
X0155095Y0693933D03*
X0160095Y0715183D03*
X0171345Y0721433D03*
X0171345Y0731433D03*
X0171345Y0738933D03*
X0173845Y0753933D03*
X0143845Y0778933D03*
X0158845Y0798933D03*
X0163845Y0798933D03*
X0171345Y0796433D03*
X0198845Y0798933D03*
X0203845Y0798933D03*
X0213845Y0798933D03*
X0203845Y0778933D03*
X0232595Y0768933D03*
X0238845Y0778933D03*
X0238845Y0796433D03*
X0243845Y0798933D03*
X0253845Y0798933D03*
X0258845Y0798933D03*
X0268845Y0778933D03*
X0265095Y0773933D03*
X0276345Y0798933D03*
X0293845Y0801433D03*
X0303845Y0826433D03*
X0368845Y0773933D03*
X0371345Y0730183D03*
X0396345Y0698933D03*
X0408845Y0658933D03*
X0378845Y0637683D03*
X0327595Y0708933D03*
X0322595Y0713933D03*
X0323845Y0725183D03*
X0313845Y0693933D03*
X0295095Y0688933D03*
X0282595Y0708933D03*
X0285095Y0713933D03*
X0278845Y0723933D03*
X0262595Y0718933D03*
X0258845Y0713933D03*
X0262595Y0698933D03*
X0270095Y0693933D03*
X0255095Y0673933D03*
X0260095Y0658933D03*
X0267595Y0648933D03*
X0252595Y0638933D03*
X0270095Y0668933D03*
X0283845Y0666433D03*
X0297595Y0653933D03*
X0317595Y0663933D03*
X0283845Y0743933D03*
X0243845Y0738933D03*
X0238845Y0748933D03*
X0228845Y0798933D03*
X0123845Y0798933D03*
X0118845Y0798933D03*
X0118845Y0793933D03*
X0113845Y0788933D03*
X0103845Y0798933D03*
X0098845Y0793933D03*
X0093845Y0783933D03*
X0088845Y0773933D03*
X0066345Y0706433D03*
X0080095Y0703933D03*
X0085095Y0695183D03*
X0085095Y0683933D03*
X0092595Y0618933D03*
X0083845Y0608933D03*
X0088845Y0598933D03*
X0098845Y0593933D03*
X0116345Y0603933D03*
X0120095Y0613933D03*
X0103845Y0573933D03*
X0095095Y0498933D03*
X0081345Y0488933D03*
X0068845Y0483933D03*
X0061345Y0493933D03*
X0071345Y0503933D03*
X0097595Y0468933D03*
X0093845Y0458933D03*
X0116345Y0431433D03*
X0138845Y0463933D03*
X0163845Y0423933D03*
X0171345Y0426433D03*
X0193845Y0428933D03*
X0172595Y0451433D03*
X0185095Y0392683D03*
X0178845Y0358933D03*
X0196345Y0343933D03*
X0206345Y0348933D03*
X0233845Y0368933D03*
X0238845Y0345183D03*
X0258845Y0323933D03*
X0303845Y0345183D03*
X0331345Y0351433D03*
X0358845Y0393933D03*
X0342595Y0421433D03*
X0331345Y0418933D03*
X0353845Y0432683D03*
X0337595Y0452683D03*
X0333845Y0478933D03*
X0367595Y0473933D03*
X0380095Y0463933D03*
X0387595Y0463933D03*
X0373845Y0445183D03*
X0378845Y0432683D03*
X0408845Y0438933D03*
X0453845Y0408933D03*
X0477595Y0363933D03*
X0473845Y0338933D03*
X0463845Y0331433D03*
X0516345Y0363933D03*
X0518845Y0358933D03*
X0521345Y0348933D03*
X0533845Y0343933D03*
X0522595Y0383933D03*
X0516345Y0418933D03*
X0516345Y0442683D03*
X0532595Y0442683D03*
X0547595Y0447683D03*
X0542595Y0473933D03*
X0441345Y0598933D03*
X0438845Y0608933D03*
X0467595Y0638933D03*
X0411345Y0748933D03*
X0282595Y0538933D03*
X0208845Y0578933D03*
X0143845Y0653933D03*
X0051345Y0443933D03*
X0090095Y0408933D03*
X0118845Y0393933D03*
X0153845Y0337683D03*
X0082595Y0337683D03*
X0073845Y0346433D03*
X0058845Y0343933D03*
X0238845Y0398933D03*
X0298845Y0422683D03*
X0303845Y0413933D03*
X0393845Y0498933D03*
D33*
X0628845Y0046138D03*
X0041050Y0046138D03*
D34*
X0043806Y0291413D03*
X0624908Y0291413D03*
D35*
X0562310Y0692988D03*
X0209160Y0704012D03*
X0210735Y0463854D03*
M02*
