%
M48
M72
T01C0.02362
T02C0.02756
T03C0.03200
T04C0.03600
T05C0.04000
T06C0.04331
T07C0.04400
T08C0.05900
T09C0.08661
T10C0.09843
T11C0.13000
T12C0.13386
T13C0.13780
%
T01
X103845Y798933
X98845Y793933
X93845Y783933
X88845Y773933
X113845Y788933
X118845Y793933
X118845Y798933
X123845Y798933
X158845Y798933
X163845Y798933
X171345Y796433
X198845Y798933
X203845Y798933
X213845Y798933
X228845Y798933
X238845Y796433
X243845Y798933
X253845Y798933
X258845Y798933
X276345Y798933
X303845Y826433
X293845Y801433
X268845Y778933
X265095Y773933
X238845Y778933
X232595Y768933
X238845Y748933
X243845Y738933
X258845Y713933
X262595Y718933
X278845Y723933
X285095Y713933
X282595Y708933
X270095Y693933
X262595Y698933
X255095Y673933
X260095Y658933
X267595Y648933
X252595Y638933
X233845Y627683
X220095Y642683
X207595Y638933
X203845Y627683
X198845Y616433
X190095Y603933
X207595Y598933
X218845Y608933
X208845Y578933
X176345Y620183
X180095Y628933
X186345Y650183
X215095Y658933
X222595Y662683
X223845Y683933
X232595Y693933
X223845Y703933
X221345Y708933
X226345Y718933
X227595Y723933
X213845Y728933
X188845Y698933
X178845Y683933
X161345Y673933
X155095Y693933
X160095Y715183
X171345Y721433
X171345Y731433
X171345Y738933
X173845Y753933
X143845Y778933
X58845Y343933
X73845Y346433
X82595Y337683
X118845Y393933
X90095Y408933
X116345Y431433
X138845Y463933
X163845Y423933
X171345Y426433
X193845Y428933
X172595Y451433
X206345Y493933
X201345Y498933
X205095Y513933
X197595Y518933
X191345Y518933
X198845Y528933
X215095Y523933
X218845Y503933
X213845Y481433
X238845Y453933
X261345Y453933
X260095Y435183
X238845Y398933
X233845Y368933
X238845Y345183
X258845Y323933
X303845Y345183
X331345Y351433
X358845Y393933
X342595Y421433
X331345Y418933
X353845Y432683
X337595Y452683
X333845Y478933
X367595Y473933
X380095Y463933
X387595Y463933
X373845Y445183
X378845Y432683
X408845Y438933
X417595Y442683
X426345Y452683
X442595Y468933
X442595Y483933
X441345Y508933
X441345Y516433
X451345Y523933
X446345Y533933
X458845Y538933
X466345Y528933
X443845Y553933
X418845Y526433
X418845Y518933
X398845Y540183
X403845Y548933
X393845Y557683
X390095Y536433
X361345Y556433
X352595Y583933
X351345Y593933
X350095Y598933
X345095Y608933
X341345Y616433
X328845Y623933
X328845Y633933
X343845Y658933
X352595Y665183
X352595Y648933
X356345Y640183
X358845Y623933
X363845Y603933
X373845Y583933
X341345Y578933
X331345Y568933
X318845Y573933
X287595Y563933
X282595Y578933
X272595Y598933
X255095Y568933
X267595Y563933
X257595Y553933
X267595Y538933
X273845Y528933
X265095Y518933
X253845Y503933
X267595Y493933
X288845Y498933
X293845Y483933
X291345Y466433
X298845Y422683
X303845Y413933
X393845Y498933
X445095Y430183
X436345Y425183
X453845Y408933
X461345Y435183
X486345Y435183
X481345Y465183
X492595Y498933
X511345Y513933
X541345Y508933
X542595Y473933
X547595Y447683
X532595Y442683
X516345Y442683
X516345Y418933
X522595Y383933
X516345Y363933
X518845Y358933
X521345Y348933
X533845Y343933
X477595Y363933
X473845Y338933
X463845Y331433
X595095Y483933
X598845Y493933
X593845Y523933
X588845Y543933
X566345Y536433
X542595Y553933
X542595Y573933
X540095Y578933
X537595Y583933
X503845Y573933
X477595Y613933
X492595Y633933
X490095Y657683
X476345Y663933
X478845Y688933
X490095Y716433
X498845Y718933
X543845Y755183
X553845Y703933
X596345Y678933
X607595Y658933
X612595Y673933
X598845Y708933
X610095Y588933
X587595Y573933
X628845Y483933
X623845Y442683
X603845Y363933
X606345Y326433
X441345Y598933
X438845Y608933
X467595Y638933
X408845Y658933
X378845Y637683
X396345Y698933
X371345Y730183
X368845Y773933
X323845Y725183
X322595Y713933
X327595Y708933
X313845Y693933
X295095Y688933
X283845Y666433
X270095Y668933
X297595Y653933
X317595Y663933
X283845Y743933
X203845Y778933
X143845Y653933
X120095Y613933
X116345Y603933
X98845Y593933
X88845Y598933
X83845Y608933
X92595Y618933
X103845Y573933
X150095Y598933
X152595Y608933
X163845Y566433
X168845Y558933
X171345Y538933
X167595Y533933
X95095Y498933
X81345Y488933
X68845Y483933
X61345Y493933
X71345Y503933
X97595Y468933
X93845Y458933
X51345Y443933
X153845Y337683
X178845Y358933
X196345Y343933
X206345Y348933
X185095Y392683
X282595Y538933
X411345Y748933
X85095Y695183
X80095Y703933
X66345Y706433
X85095Y683933
T02
X564345Y333933
X573739Y333933
X583345Y333933
T03
X73845Y353933
X73845Y363933
X73845Y373933
X73845Y383933
X73845Y393933
X73845Y403933
X73845Y413933
X83845Y423933
X93845Y423933
X103845Y423933
X103845Y413933
X103845Y403933
X103845Y393933
X103845Y383933
X103845Y373933
X103845Y363933
X103845Y353933
X133845Y353933
X133845Y363933
X133845Y373933
X133845Y383933
X133845Y393933
X133845Y403933
X133845Y413933
X133845Y423933
X143845Y423933
X153845Y423933
X163845Y413933
X163845Y403933
X163845Y393933
X163845Y383933
X163845Y373933
X163845Y363933
X163845Y353933
X193845Y353933
X193845Y363933
X193845Y373933
X193845Y383933
X193845Y393933
X193845Y403933
X193845Y413933
X163845Y433933
X148845Y446433
X163845Y453933
X153845Y473933
X153845Y483933
X153845Y493933
X153845Y503933
X153845Y513933
X153845Y523933
X153845Y533933
X153845Y543933
X153845Y560183
X158845Y578933
X143845Y588933
X143845Y598933
X143845Y608933
X133845Y608933
X133845Y598933
X133845Y588933
X133845Y578933
X133845Y568933
X123845Y560183
X118845Y553933
X118845Y543933
X118845Y533933
X118845Y523933
X118845Y513933
X118845Y503933
X118845Y493933
X118845Y483933
X118845Y473933
X118845Y463933
X131345Y453933
X118845Y446433
X103845Y448933
X93845Y448933
X88845Y463933
X88845Y473933
X88845Y483933
X88845Y493933
X88845Y503933
X88845Y513933
X88845Y523933
X88845Y533933
X88845Y543933
X88845Y553933
X73845Y543933
X61345Y543933
X73845Y568933
X73845Y578933
X73845Y588933
X73845Y598933
X73845Y608933
X73845Y618933
X73845Y628933
X73845Y638933
X73845Y648933
X73845Y658933
X73845Y668933
X73845Y678933
X73845Y688933
X73845Y698933
X73845Y723933
X83845Y723933
X83845Y778933
X73845Y778933
X283845Y798933
X273845Y788933
X263845Y788933
X273845Y758933
X293845Y753933
X293845Y743933
X293845Y733933
X303845Y723933
X313845Y723933
X323845Y733933
X323845Y743933
X323845Y753933
X323845Y763933
X323845Y773933
X338845Y758933
X348845Y758933
X358845Y758933
X353845Y773933
X338845Y743933
X338845Y733933
X333845Y713933
X333845Y703933
X333845Y693933
X333845Y683933
X333845Y673933
X333845Y663933
X333845Y653933
X333845Y643933
X343845Y623933
X328845Y603933
X318845Y603933
X303845Y598933
X303845Y588933
X303845Y578933
X303845Y568933
X303845Y558933
X303845Y548933
X303845Y538933
X303845Y528933
X303845Y518933
X303845Y503933
X323845Y498933
X323845Y508933
X323845Y518933
X323845Y528933
X323845Y538933
X323845Y548933
X326345Y558933
X336345Y558933
X353845Y548933
X353845Y538933
X353845Y528933
X353845Y518933
X353845Y508933
X353845Y498933
X353845Y488933
X353845Y478933
X353845Y468933
X353845Y458933
X373845Y458933
X373845Y468933
X373845Y478933
X373845Y488933
X373845Y498933
X373845Y508933
X373845Y518933
X373845Y528933
X393845Y563933
X393845Y573933
X393845Y583933
X393845Y593933
X393845Y603933
X393845Y613933
X393845Y623933
X388845Y643933
X388845Y653933
X388845Y663933
X388845Y673933
X388845Y683933
X388845Y693933
X388845Y703933
X388845Y713933
X378845Y733933
X368845Y743933
X383845Y753933
X393845Y763933
X403845Y753933
X418845Y753933
X428845Y763933
X438845Y753933
X448845Y728933
X448845Y713933
X448845Y703933
X448845Y693933
X448845Y683933
X448845Y673933
X448845Y663933
X448845Y653933
X448845Y643933
X448845Y633933
X448845Y623933
X448845Y613933
X448845Y603933
X448845Y593933
X448845Y583933
X423845Y583933
X423845Y573933
X423845Y563933
X438845Y538933
X428845Y518933
X428845Y508933
X428845Y498933
X428845Y488933
X428845Y478933
X428845Y468933
X428845Y458933
X403845Y458933
X403845Y468933
X403845Y478933
X403845Y488933
X403845Y498933
X403845Y508933
X403845Y518933
X403845Y528933
X458845Y518933
X458845Y508933
X458845Y498933
X458845Y488933
X458845Y478933
X458845Y468933
X458845Y458933
X473845Y458933
X473845Y468933
X473845Y478933
X473845Y488933
X473845Y498933
X473845Y508933
X473845Y518933
X488845Y531433
X498845Y531433
X503845Y518933
X503845Y508933
X503845Y498933
X503845Y488933
X503845Y478933
X503845Y468933
X503845Y458933
X528845Y458933
X528845Y468933
X528845Y478933
X528845Y488933
X528845Y498933
X528845Y508933
X528845Y518933
X538845Y531433
X548845Y531433
X553845Y543933
X553845Y553933
X553845Y563933
X553845Y573933
X553845Y583933
X553845Y593933
X553845Y603933
X573845Y603933
X573845Y593933
X573845Y583933
X573845Y573933
X573845Y563933
X573845Y553933
X573845Y543933
X578845Y518933
X578845Y508933
X578845Y498933
X578845Y488933
X578845Y478933
X578845Y468933
X578845Y458933
X593845Y443933
X603845Y428933
X603845Y418933
X583845Y413933
X583845Y423933
X573845Y423933
X563845Y443933
X558845Y458933
X558845Y468933
X558845Y478933
X558845Y488933
X558845Y498933
X558845Y508933
X558845Y518933
X523845Y543933
X523845Y553933
X523845Y563933
X523845Y573933
X523845Y583933
X523845Y593933
X523845Y603933
X523845Y613933
X523845Y623933
X508845Y623933
X508845Y613933
X508845Y603933
X508845Y593933
X508845Y583933
X508845Y633933
X508845Y643933
X508845Y653933
X508845Y663933
X508845Y673933
X508845Y683933
X508845Y693933
X508845Y703933
X508845Y713933
X508845Y733933
X528845Y718933
X538845Y718933
X548845Y718933
X558845Y718933
X568845Y718933
X578845Y718933
X588845Y718933
X603845Y718933
X603845Y728933
X603845Y743933
X603845Y753933
X598845Y763933
X588845Y748933
X578845Y748933
X568845Y748933
X558845Y748933
X558845Y763933
X568845Y763933
X568845Y773933
X548845Y748933
X538845Y748933
X528845Y748933
X528845Y763933
X518845Y768933
X508845Y768933
X493845Y768933
X483845Y768933
X473845Y778933
X473845Y748933
X478845Y733933
X458845Y728933
X418845Y713933
X418845Y703933
X418845Y693933
X418845Y683933
X418845Y673933
X418845Y663933
X418845Y653933
X418845Y643933
X423845Y623933
X423845Y613933
X423845Y603933
X423845Y593933
X373845Y623933
X363845Y643933
X363845Y653933
X363845Y663933
X363845Y673933
X363845Y683933
X363845Y693933
X363845Y703933
X363845Y713933
X303845Y708933
X303845Y698933
X303845Y688933
X303845Y678933
X303845Y668933
X303845Y658933
X303845Y648933
X303845Y638933
X303845Y628933
X303845Y618933
X303845Y608933
X268845Y608933
X268845Y628933
X243845Y628933
X243845Y638933
X243845Y648933
X243845Y658933
X243845Y668933
X243845Y678933
X243845Y688933
X243845Y698933
X243845Y708933
X203845Y738933
X193845Y738933
X183845Y738933
X188845Y758933
X198845Y758933
X198845Y768933
X188845Y788933
X233845Y788933
X238845Y768933
X238845Y758933
X293845Y763933
X313845Y798933
X393845Y808933
X393845Y818933
X423845Y818933
X423845Y808933
X528845Y668933
X538845Y668933
X548845Y668933
X558845Y668933
X568845Y668933
X578845Y668933
X588845Y668933
X588845Y638933
X578845Y638933
X568845Y638933
X558845Y638933
X548845Y638933
X538845Y638933
X528845Y638933
X603845Y603933
X603845Y593933
X603845Y583933
X603845Y573933
X603845Y563933
X603845Y553933
X603845Y543933
X608845Y518933
X608845Y508933
X608845Y498933
X608845Y488933
X608845Y478933
X608845Y468933
X608845Y458933
X583845Y403933
X583845Y393933
X583845Y383933
X583845Y373933
X583845Y363933
X583845Y353933
X598845Y353933
X598845Y383933
X553845Y383933
X553845Y373933
X553845Y363933
X553845Y353933
X533845Y353933
X533845Y363933
X533845Y373933
X533845Y383933
X533845Y393933
X533845Y403933
X533845Y413933
X553845Y413933
X553845Y403933
X553845Y393933
X538845Y333933
X528845Y333933
X528845Y323933
X506345Y333933
X498845Y323933
X496345Y333933
X483845Y323933
X473845Y323933
X468845Y353933
X468845Y363933
X468845Y373933
X468845Y383933
X468845Y393933
X468845Y403933
X468845Y413933
X438845Y413933
X438845Y403933
X438845Y393933
X438845Y383933
X438845Y373933
X438845Y363933
X438845Y353933
X413845Y353933
X413845Y363933
X413845Y373933
X413845Y383933
X413845Y393933
X413845Y403933
X413845Y413933
X383845Y413933
X383845Y426433
X373845Y426433
X383845Y403933
X383845Y393933
X383845Y383933
X383845Y373933
X383845Y363933
X383845Y353933
X368845Y343933
X373845Y323933
X393845Y323933
X423845Y323933
X443845Y323933
X483845Y353933
X503845Y353933
X503845Y363933
X503845Y373933
X503845Y383933
X503845Y393933
X503845Y403933
X503845Y413933
X468845Y538933
X348845Y413933
X348845Y403933
X348845Y393933
X348845Y383933
X348845Y373933
X348845Y363933
X348845Y353933
X368845Y373933
X343845Y323933
X323845Y323933
X318845Y353933
X318845Y363933
X318845Y373933
X318845Y383933
X318845Y393933
X318845Y403933
X318845Y413933
X283845Y413933
X283845Y403933
X283845Y393933
X283845Y383933
X283845Y373933
X283845Y363933
X283845Y353933
X273845Y323933
X293845Y323933
X253845Y353933
X253845Y363933
X253845Y373933
X253845Y383933
X253845Y393933
X253845Y403933
X253845Y413933
X238845Y408933
X223845Y403933
X223845Y393933
X223845Y383933
X223845Y373933
X223845Y363933
X223845Y353933
X238845Y378933
X223845Y413933
X253845Y448933
X283845Y448933
X303845Y473933
X323845Y468933
X323845Y458933
X323845Y478933
X323845Y488933
X243845Y518933
X243845Y528933
X243845Y538933
X243845Y548933
X243845Y558933
X243845Y568933
X243845Y578933
X243845Y588933
X243845Y598933
X243845Y608933
X243845Y618933
X228845Y598933
X228845Y578933
X228845Y566433
X228845Y548933
X228845Y538933
X198845Y538933
X198845Y548933
X183845Y543933
X183845Y533933
X183845Y523933
X183845Y513933
X183845Y503933
X183845Y493933
X183845Y483933
X183845Y473933
X193845Y483933
X193845Y453933
X131345Y483933
X131345Y503933
X131345Y533933
X173845Y553933
X183845Y553933
X198845Y566433
X198845Y578933
X188845Y578933
X198845Y598933
X173845Y598933
X173845Y588933
X173845Y608933
X198845Y638933
X198845Y658933
X188845Y688933
X158845Y688933
X133845Y688933
X133845Y698933
X133845Y678933
X133845Y668933
X133845Y658933
X133845Y648933
X133845Y638933
X133845Y628933
X133845Y618933
X73845Y513933
X61345Y513933
X143845Y323933
X173845Y323933
X193845Y323933
X223845Y323933
X243845Y323933
X228845Y638933
X228845Y658933
X538845Y773933
T04
X73845Y438933
X73845Y448933
X73845Y458933
X168845Y628933
X168845Y638933
X168845Y648933
X288845Y783933
X298845Y783933
X308845Y783933
X378845Y808933
X378845Y818933
X491345Y747683
X501345Y747683
X511345Y747683
X528845Y703933
X528845Y693933
X528845Y683933
X503845Y558933
X493845Y558933
X483845Y558933
X253845Y488933
X253845Y478933
X253845Y468933
T05
X436045Y800333
X436045Y782533
X461645Y782533
X461645Y800333
T06
X61988Y90791
X78845Y73933
X95703Y57076
X116988Y90791
X133845Y73933
X150703Y57076
X171988Y90791
X188845Y73933
X205703Y57076
X226988Y90791
X243845Y73933
X260703Y57076
X281988Y90791
X298845Y73933
X315703Y57076
X336988Y90791
X353845Y73933
X370703Y57076
X391988Y90791
X408845Y73933
X425703Y57076
X446988Y90791
X463845Y73933
X480703Y57076
X501988Y90791
X518845Y73933
X535703Y57076
X556988Y90791
X573845Y73933
X590703Y57076
X565703Y113326
X548845Y130183
X531988Y147041
X550703Y169576
X533845Y186433
X516988Y203291
X525703Y224576
X508845Y241433
X491988Y258291
X470703Y224576
X453845Y241433
X436988Y258291
X415703Y224576
X398845Y241433
X381988Y258291
X360703Y224576
X343845Y241433
X326988Y258291
X305703Y224576
X296988Y203291
X313845Y186433
X330703Y169576
X311988Y147041
X328845Y130183
X345703Y113326
X366988Y147041
X383845Y130183
X400703Y113326
X421988Y147041
X438845Y130183
X455703Y113326
X476988Y147041
X493845Y130183
X510703Y113326
X495703Y169576
X478845Y186433
X461988Y203291
X440703Y169576
X423845Y186433
X406988Y203291
X385703Y169576
X368845Y186433
X351988Y203291
X288845Y241433
X271988Y258291
X250703Y224576
X241988Y203291
X258845Y186433
X275703Y169576
X256988Y147041
X273845Y130183
X290703Y113326
X235703Y113326
X218845Y130183
X201988Y147041
X220703Y169576
X203845Y186433
X186988Y203291
X195703Y224576
X178845Y241433
X161988Y258291
X139453Y224576
X122595Y241433
X105738Y258291
X85703Y224576
X68845Y241433
X51988Y258291
X76988Y203291
X93845Y186433
X110703Y169576
X86988Y145791
X103845Y128933
X120703Y112076
X146988Y147041
X163845Y130183
X180703Y113326
X165703Y169576
X148845Y186433
X131988Y203291
X216988Y258291
X233845Y241433
X546988Y258291
X563845Y241433
X580703Y224576
X571988Y203291
X588845Y186433
X605703Y169576
X586988Y145791
X603845Y128933
X620703Y112076
T07
X61345Y718933
X73845Y738933
X73845Y748933
X73845Y758933
X61345Y758933
T08
X484545Y810833
X503045Y831133
X510745Y800733
X520645Y797733
X539545Y810833
X558045Y831133
X565745Y800733
X575645Y797733
X594545Y810833
X596645Y783833
X620745Y800733
X630645Y797733
X613045Y831133
X541645Y783833
X486645Y783833
T09
X43806Y291413
X624908Y291413
T10
X332192Y793933
X346345Y809366
X360499Y793933
X484948Y801433
X503845Y789622
X503845Y813244
T11
X142845Y748933
T12
X210735Y463854
X209160Y704012
X562310Y692988
T13
X41050Y46138
X628845Y46138
M30
